<?xml version="1.0" encoding="UTF-8"?>
<svg id="Layer_1" data-name="Layer 1" xmlns="http://www.w3.org/2000/svg" viewBox="0 0 661.46 130.21">
  <defs>
    <style>
      .cls-1 {
        fill: #207554;
      }

      .cls-2 {
        fill: #231f20;
      }
    </style>
  </defs>
  <path class="cls-1" d="m586.04,14.06l52.51,72.21-66.94,29.88s-255.96-17.43-374.1-18.67-174.58,1.24-174.58,1.24c0,0,561.81-31.12,563.12-84.65Z"/>
  <path class="cls-2" d="m571.69,116.65h-.12c-2.56-.18-257.3-17.45-374.07-18.68-116.41-1.23-173.63,1.21-174.55,1.24h0l-.05-1c5.61-.31,561.36-31.71,562.65-84.17l.04-1.48,53.74,73.9-.56.25-67.06,29.93Zm-437.25-20.03c18.65,0,39.66.1,63.07.34,115.78,1.22,367.13,18.2,374.01,18.67l66.27-29.58-51.38-70.66c-4.19,22-99.14,42.7-282.36,61.56-100.21,10.31-201.28,17.28-250.42,20.4,18.48-.38,45.37-.73,80.82-.73Z"/>
</svg>