<?xml version="1.0" encoding="UTF-8"?>
<svg id="Layer_1" data-name="Layer 1" xmlns="http://www.w3.org/2000/svg" viewBox="0 0 29.72 34.65">
  <defs>
    <style>
      .cls-1 {
        fill: #721011;
        font-family: BerlinSansFB-Reg, 'Berlin Sans FB';
        font-size: 29.23px;
      }

      .cls-2 {
        fill: #253c1b;
      }
    </style>
  </defs>
  <text class="cls-1" transform="translate(11.74 28.72) scale(1.04 1)"><tspan x="0" y="0">R</tspan></text>
  <path class="cls-2" d="M19.34,3.93c-.64-1.31-1.39-2.69-2.75-3.38C15.15-.17,13.28-.01,11.73,.09s-3.25,.37-4.71,1.1c-1.55,.77-2.62,2.11-3.58,3.51C1.42,7.65-.66,11.17,.2,14.87c.72,3.09,3.24,6.34,6.24,7.5,4.07,1.57,7.73-1.48,10.48-4.11l-.85-.35c.05,1.41,.09,2.82,.16,4.23,.04,.75,.06,1.52,.91,1.74,1.73,.46,3.7-.41,4.05-2.2,.49-2.51,.25-5.3-.25-7.79-.17-.85-.29-1.84-1.03-2.41-.85-.66-2.18-.94-3.2-1.19-1.24-.3-2.51-.47-3.79-.5-.84-.02-2.15-.16-2.77,.58-.45,.53-.33,1.23,.05,1.77,.65,.93,2.69,1.07,2.49,2.48-.17,1.21-2.19,2.07-3.21,2.35-.95,.26-2.09,.18-2.39-.94-.16-.62-.16-1.32-.14-1.95,.06-2.29,.87-4.66,2.6-6.23,1.06-.97,2.69-1.81,4.15-1.28,1.1,.4,1.8,1.44,3.04,1.51,2.2,.13,3.49-2.03,2.62-3.95-.26-.59-1.13-.08-.86,.5,.76,1.68-1.08,2.96-2.55,2.17-.85-.46-1.48-1.14-2.47-1.32-1.71-.31-3.4,.53-4.64,1.65s-2.11,2.73-2.53,4.37c-.4,1.54-.66,3.61-.06,5.13,.71,1.81,2.78,1.62,4.26,.99,1.39-.59,3.17-1.47,3.22-3.22,.02-.71-.31-1.31-.88-1.73-.31-.23-.65-.34-.98-.53-.24-.13-.46-.2-.64-.43-.56-.72,.5-.94,1.09-.95,1.26-.01,2.51,.11,3.74,.38,1.08,.23,3.07,.54,3.6,1.62,.58,1.17,.62,2.98,.71,4.25,.09,1.38,.21,3.03-.14,4.37-.24,.95-.8,1.38-1.74,1.47-.8,.08-1.11,.06-1.26-.75-.24-1.35-.11-2.86-.16-4.23-.02-.43-.53-.66-.85-.35-2.84,2.72-6.74,5.86-10.69,3.2C2.2,18.52,.08,14.32,1.46,10.4c.65-1.85,1.74-3.59,2.84-5.2,1.23-1.8,2.58-3.13,4.73-3.71,1.67-.44,3.49-.53,5.21-.44,2.31,.12,3.28,1.45,4.23,3.38,.28,.58,1.15,.07,.86-.5h0Z"/>
</svg>