<?xml version="1.0" encoding="UTF-8"?>
<svg id="Layer_2" data-name="Layer 2" xmlns="http://www.w3.org/2000/svg" viewBox="0 0 1350 337.9">
  <defs>
    <style>
      .cls-1, .cls-2 {
        fill: #ff9d00;
      }

      .cls-3, .cls-4, .cls-5 {
        fill: #fff;
      }

      .cls-6, .cls-7, .cls-8, .cls-4, .cls-9, .cls-10, .cls-11, .cls-2, .cls-5 {
        stroke: #000;
        stroke-miterlimit: 10;
      }

      .cls-6, .cls-7, .cls-8, .cls-9, .cls-2, .cls-5 {
        stroke-width: 5px;
      }

      .cls-6, .cls-10, .cls-12 {
        fill: #ff00db;
      }

      .cls-7, .cls-13 {
        fill: lime;
      }

      .cls-8 {
        fill: #00ff18;
      }

      .cls-4, .cls-11 {
        stroke-width: 6.52px;
      }

      .cls-9, .cls-14 {
        fill: #c000ff;
      }

      .cls-15 {
        fill: #00e7ff;
      }

      .cls-10 {
        stroke-width: 6.05px;
      }

      .cls-11, .cls-16 {
        fill: #f9ff00;
      }

      .cls-17 {
        fill: #ffa300;
      }

      .cls-18 {
        fill: blue;
      }
    </style>
  </defs>
  <g id="Layer_1-2" data-name="Layer 1">
    <g>
      <rect class="cls-3" y="182.44" width="1350" height="155.45"/>
      <g>
        <g id="blomst.1.2">
          <g>
            <path class="cls-5" d="m217.71,22.21c-.25.04-3.35-3.42-10.27-6.59-2.12-.97-11.66-3.48-17.04-3.6-14.83-.33-29.03,4.52-30.51,36.95-.19,4.26,1.17,16.95,6.66,25.87,19.2,31.26,31.42,36.76,49.39,65.99,12.38,20.14,21.97,51.55,11.88,60.47-12.32,10.89-56.32-6.44-79.84-40.13-14.31-20.51-11.42-60.9-10.47-86.07.59-15.53-.94-25.61,7.69-45.93C159.79-5.22,196.95-1.04,210.89,12.24c8.34,7.95,7.09,9.93,6.82,9.96Z"/>
            <path class="cls-5" d="m58.48,22.18c.25.04,3.42-3.35,10.41-6.37,2.14-.93,11.73-3.23,17.11-3.23,14.84-.01,28.92,5.14,29.72,37.59.1,4.26-1.38,14.57-7.21,25.72-16.97,32.53-32.2,36.08-50.79,64.92-12.81,19.88-23.06,51.07-13.17,60.2,12.09,11.15,56.45-5.23,80.67-38.42,14.74-20.2,12.72-60.64,12.3-85.83-.26-15.53,1.48-25.58-6.71-46.09C116.97-4,79.73-.62,65.51,12.37c-8.5,7.77-7.3,9.77-7.03,9.82Z"/>
          </g>
          <g>
            <g>
              <path class="cls-14" d="m264.81,227.84c-18.64-9.91-30.62-3.53-36.01,1.02-6.45,4.85-16.72,11.46-28.26,14.19-26.83,6.35-52.38.71-55.61-12.94-3.23-13.65,14.81-27.34,43.92-36.5,11.69-3.67,21.05-4.13,28.16-2.34,41.6,7.41,47.8,36.57,47.8,36.57Z"/>
              <path d="m266.32,229.84c-1.01.18-2.69.1-3.78-.41-.92-.41-1.78-.89-2.7-1.29-8.7-4.12-19.55-4.91-27.72.78-9.62,7.32-20.35,13.56-32.29,16.18-11.87,2.58-24.23,3.31-36.2.72-19.3-3.97-28.7-19.06-12.91-34.48,6.69-6.32,14.96-10.66,23.28-14.25,11.23-4.59,22.81-8.91,35.19-8.81,4.63.02,9.12,1.14,13.63,2.12,7.44,1.74,14.72,4.46,21.29,8.4,9.31,5.53,17.25,13.84,21.56,23.89.55,1.28,1.04,2.62,1.43,3.98,0,0,.08.31.08.31,0,0,.04.16.04.16.04.24-.05-.42.08.56.09.81-.47,1.82-.98,2.16h0Zm-3.01-3.99c-.52.29-1.09,1.26-1.01,2.02.12.93.03.23.05.42,0,0-.03-.11-.03-.11-.67-2.59-1.76-5.04-3.01-7.41-7.16-13.38-20.96-22-35.37-25.83-3.48-.88-7.11-1.7-10.65-2.31-7.1-.99-14.27.16-21.25,2.05-14.45,4.31-36.16,12.26-43.95,25.81-2.63,4.7-2.31,10.59,1.49,14.51,8.01,7.96,21.26,9.05,32.09,8.82,19.23-.7,33.17-6.3,48.12-18.29,9.99-7.18,23.48-6.08,34.09-.92,0,0,.27.12.27.12-.06,0-.2.01-.35.11-.26.16-.5.57-.5.99h0Z"/>
            </g>
            <g>
              <path class="cls-14" d="m217.82,287.88c-7.17-15.28-17.89-16.94-23.52-16.62-6.45.01-16.19-.69-24.88-4.47-20.2-8.8-33.85-24.67-29.37-34.95,4.48-10.28,22.58-10.39,45.59-2.28,9.24,3.26,15.45,7.46,19.14,12.01,23.05,24.69,13.04,46.31,13.04,46.31Z"/>
              <path d="m217.83,290.38c-.86-.36-2.11-1.32-2.63-2.3-.41-.72-.72-1.45-1.13-2.16-3.5-6.69-9.9-12.33-17.71-12.63-9.71.05-19.61-1.13-28.54-5.22-8.88-4.06-17.16-9.57-23.62-17-10.64-11.93-9.22-26.58,8.5-28.84,13.43-1.67,38.05,4.96,48.75,13.33,2.98,2.25,5.33,5.13,7.78,7.94,2.36,2.8,4.54,5.86,6.38,9.03,5.72,9.65,8.38,21.49,5.71,32.56-.26,1.11-.6,2.22-1.01,3.29,0,0-.1.25-.1.25,0,0-.05.13-.05.13-.11.21.21-.37-.26.48-.41.69-1.46,1.17-2.07,1.13h0Zm-.01-5c-.59-.07-1.63.37-2.03,1.03-.46.82-.12.21-.22.38.14-.33.39-.98.51-1.34,5.16-16.44-3.19-32.85-14.61-44.5-9.46-9.93-41.85-19.43-54.62-13.41-9.72,4.67-5.54,14.94.03,21.27,6.02,6.97,14.06,12.17,22.45,15.94,8.47,3.87,18,4.7,27.23,4.47,9.99.19,18.25,7.43,22.66,15.94,0,0,.12.21.12.21,0,0-.03-.05-.06-.08-.37-.35-1.06-.26-1.45.11h0Z"/>
            </g>
            <g>
              <path class="cls-14" d="m8.28,226.29c18.85-9.51,30.69-2.87,35.98,1.79,6.35,4.99,16.47,11.81,27.95,14.79,26.68,6.92,52.36,1.83,55.88-11.75,3.52-13.58-14.22-27.65-43.13-37.42-11.61-3.92-20.96-4.57-28.11-2.94-41.74,6.52-48.57,35.54-48.57,35.54Z"/>
              <path d="m9.82,224.33c0-.54-.33-1.05-.77-1.12-.03,0-.07,0-.05,0,0,0,.27-.11.27-.11,10.72-4.94,24.22-5.75,34.06,1.64,14.7,12.31,28.51,18.2,47.72,19.31,10.84.45,24.08-.34,32.28-8.13,3.88-3.85,4.33-9.72,1.8-14.48-7.48-13.7-29.05-22.13-43.39-26.74-6.94-2.04-14.08-3.34-21.2-2.5-3.56.53-7.2,1.27-10.7,2.08-14.48,3.52-28.47,11.84-35.91,25.07-1.3,2.34-2.44,4.77-3.17,7.35,0,0-.03.11-.03.11.03-.19-.08.51.06-.42.09-.76-.45-1.74-.96-2.04h0Zm-3.09,3.93c-.5-.35-1.04-1.38-.93-2.18.15-.97.06-.32.1-.55l.05-.16.09-.31c.42-1.35.93-2.67,1.51-3.94,4.53-9.95,12.64-18.09,22.07-23.42,6.65-3.8,13.99-6.37,21.46-7.95,4.53-.88,9.05-1.9,13.67-1.82,12.38.16,23.86,4.73,34.99,9.56,8.25,3.77,16.42,8.29,22.97,14.75,15.4,15.69,5.83,30.62-13.64,34.2-12.02,2.34-24.37,1.34-36.18-1.49-11.88-2.87-22.48-9.34-31.94-16.86-8.68-6.33-20.44-5.11-29.64-.5-1.29.74-3.26.97-4.58.69h0Z"/>
            </g>
            <g>
              <path class="cls-14" d="m51.17,286.14c7.5-15.12,18.25-16.56,23.87-16.11,6.45.15,16.2-.34,24.97-3.94,20.39-8.37,34.37-23.94,30.11-34.31-4.26-10.37-22.36-10.87-45.53-3.26-9.31,3.06-15.6,7.13-19.39,11.6-23.57,24.19-14.02,46.03-14.02,46.03Z"/>
              <path d="m51.23,283.64c-.4-.39-1.18-.49-1.51-.06,0,0,.12-.2.12-.2,4.59-8.41,13-15.48,23-15.46,9.22.43,18.77-.2,27.31-3.88,8.47-3.59,16.62-8.61,22.79-15.46,5.69-6.18,10.12-16.4.48-21.27-12.63-6.29-45.21,2.51-54.9,12.25-11.67,11.41-20.36,27.64-15.56,44.18,0,0,.25.75.25.75.05.12.17.48.23.6-.09-.18.23.45-.21-.38-.38-.67-1.41-1.13-2-1.07h0Zm-.12,5c-.61.03-1.65-.47-2.05-1.17-.46-.86-.14-.28-.25-.49l-.05-.13s-.09-.25-.09-.25c-.38-1.08-.7-2.2-.94-3.31-2.44-11.13.47-22.91,6.4-32.44,1.9-3.13,4.15-6.14,6.57-8.89,2.5-2.76,4.92-5.59,7.94-7.77,10.87-8.14,35.61-14.24,49.03-12.29,17.6,2.62,18.82,17.25,7.88,29.01-6.62,7.3-15.01,12.63-23.98,16.5-9.02,3.89-18.94,4.86-28.65,4.61-7.81.13-14.33,5.63-17.97,12.25-.42.7-.74,1.43-1.17,2.14-.54.96-1.81,1.9-2.68,2.24h0Z"/>
            </g>
            <g>
              <path class="cls-14" d="m158.36,290.81c1.52-10.57-3.58-15.18-6.66-16.96-3.42-2.24-8.32-5.99-11.6-11.01-7.62-11.68-9.33-24.81-3.39-28.68,5.94-3.88,15.55,2.35,24.9,14.63,3.75,4.93,5.58,9.31,5.95,13,3.61,21.07-9.2,29.02-9.2,29.02Z"/>
              <path d="m157,292.9c-.51-.91-.99-2.48-.89-3.68.06-.93.19-1.9.15-2.82.07-4.23-1.74-8.49-5.43-10.71-4.9-3.29-9.4-7.32-12.57-12.38-4.03-6.6-7.3-14.34-6.8-22.35,1.22-11.93,11.98-11.66,19.69-5.56,5.06,3.77,9.1,8.41,12.87,13.41,1.83,2.55,3.49,5.3,4.57,8.42,3.49,11.77,2.12,26.45-7.76,34.85-.27.21-.74.6-1.03.79-.2.11.4-.2-.47.25-.72.35-1.85.16-2.33-.21h0Zm2.73-4.19c-.46-.38-1.57-.58-2.27-.24-.84.44-.22.12-.41.21,0,0,.03-.02.03-.02,0,0,.08-.05.08-.05,0,0,.18-.12.18-.12,9-6.8,10.2-19.71,7.43-29.98-1.72-5.21-5.53-9.93-9.41-14.29-3.72-3.93-8.34-8.35-13.65-9.32-6.1-.92-7.37,5.62-6.65,10.52.74,5.66,3.14,11.15,6.24,15.96,3.11,4.9,7.82,8.55,12.73,11.56,5.18,3.53,7.31,10.05,6.96,16.08,0,.08,0,.05,0,.04-.19-.39-.76-.51-1.27-.35h0Z"/>
            </g>
            <g>
              <path class="cls-14" d="m101.66,289.7c-.58-10.66,4.9-14.8,8.14-16.31,3.6-1.93,8.82-5.23,12.53-9.94,8.63-10.96,11.48-23.88,5.91-28.27-5.58-4.39-15.7.97-26.1,12.38-4.18,4.58-6.38,8.78-7.07,12.42-5.46,20.66,6.6,29.72,6.6,29.72Z"/>
              <path d="m100.48,287.5c-.48-.21-1.03-.13-1.28.2,0,0-.01.03-.01.03,0,0,0,.03,0-.04.18-6.04,2.88-12.35,8.35-15.41,5.16-2.57,10.18-5.79,13.7-10.39,3.51-4.51,6.39-9.77,7.63-15.35,1.15-4.81.47-11.45-5.69-11.07-5.38.5-10.36,4.5-14.42,8.08-4.25,4.01-8.46,8.37-10.64,13.41-3.66,9.98-3.61,22.95,4.76,30.52,0,0,.17.14.17.14,0,0,.08.06.08.06,0,0,.03.02.03.02-.17-.11.41.26-.39-.24-.67-.4-1.79-.3-2.29.04h0Zm2.35,4.41c-.51.32-1.66.41-2.34,0-.82-.52-.25-.16-.44-.29-.27-.22-.7-.62-.96-.88-9.1-9.24-9.18-23.98-4.66-35.4,1.35-3.01,3.24-5.61,5.29-7.98,4.2-4.64,8.64-8.91,14.01-12.22,8.18-5.37,18.96-4.75,19.12,7.28-.21,8.02-4.15,15.45-8.75,21.66-3.6,4.76-8.44,8.38-13.61,11.22-3.87,1.88-6.05,5.97-6.36,10.19-.12.91-.07,1.9-.1,2.82,0,1.2-.62,2.73-1.21,3.59h0Z"/>
            </g>
          </g>
          <g id="RIGTIG">
            <g>
              <path class="cls-12" d="m82.07,206.66c13.08,8.93,35.72,16.64,35.72,16.64l27.77.3s22.7-6.08,35.4-16.56c16.5-13.6,19.72-33.21,8.68-52.07-7.92-13.53-19.92-15.11-30.87-12.64,14.86-8.93,10.56-17.8,10.56-17.8-4.12-.48-7.6-.29-10.53.31,5.3-6.37,2.83-11.48,2.83-11.48-6.32-.74-11.14.1-14.77,1.58-.08-1.61-.29-3.11-.57-4.51-2.66-13.1-12.89-17.69-12.89-17.69-12.45,4.01-17.56,12.43-19.11,21.32-3.3-1.04-7.43-1.58-12.57-1.08,0,0-2.53,4.94,2.41,11.31-2.94-.68-6.47-.96-10.65-.56,0,0-4.84,9.48,11.99,19.12.86.49,1.66.91,2.42,1.27-19.62-6.22-32.07-1.91-38.23,19.76-1.99,7.02-1.71,33.17,12.41,42.81Z"/>
              <path d="m83.1,205.14c9.91,6.83,25.57,12.78,34.71,16.32,0,0,27.77.3,27.77.3,0,0-.49.06-.49.06,5.18-1.61,10.39-3.52,15.39-5.69,7.43-3.29,14.7-6.94,20.64-12.46,11.92-10.49,15.62-26.2,9.66-40.9-5.76-14.58-15.55-21.93-31.61-18.67,0,0-9.95,1.95-9.95,1.95,1.6-1,9.44-5.78,10.85-6.77,4.38-3.08,9.42-8.2,7.61-13.97,0,0,1.43,1.02,1.43,1.02-3.35-.39-6.73-.37-9.95.28l-4.78.97,3-3.94c2.05-2.48,3.61-5.84,2.73-9.08-.04-.17-.14-.41-.14-.43,0,0,1.43,1.02,1.43,1.02-5.72-.75-11.2.04-16.27,2.43.14-9.33-3.99-18.76-12.49-23.2,0,0,1.31.07,1.31.07-2.31.67-4.55,1.56-6.6,2.76-7.31,4.19-10.6,11.07-11.64,19.19-4.39-1.6-9.07-2.14-13.83-1.63,0,0,1.45-.99,1.45-.99-1.05,2.74-.11,5.85,1.44,8.25.44.64,3.09,4.36,3.6,5.09-4.75-1.22-9.75-2.24-14.74-1.6,0,0,1.45-.99,1.45-.99-.19.46-.37,1.27-.41,1.8-.26,7.73,7.88,12.89,13.97,16.09,0,0-1.33,3.4-1.33,3.4-3.77-1.16-7.6-2.08-11.42-2.38-9.23-.89-16.41,2.99-20.68,11.21-1.27,2.5-2.53,5.36-3.3,8.07-.61,1.77-1.03,3.64-1.15,5.53-.81,12.47,1.56,29.11,12.32,36.88h0Zm-2.06,3.02c-12.05-8.61-14.8-26.43-13.9-40.23.29-4.23,1.88-8.27,3.46-12.18,7.55-17.15,21.58-18.6,37.84-13.41,0,0-1.33,3.4-1.33,3.4-6.41-3.33-12.97-7.65-15.46-14.81-.97-2.89-.88-6.22.62-8.95,4.06-.44,8.19-.45,12.27.5,0,0-1.86,2.9-1.86,2.9-2.08-2.72-3.58-6.05-3.42-9.56.03-1.61.49-3.14,1.25-4.59,0,0,1.03-.1,1.03-.1,4.38-.42,8.94-.21,13.3,1.16l-2.35,1.43c2.02-11.25,9.71-19.08,20.36-22.74,0,0,.64-.24.64-.24,1.43.65,2.74,1.43,3.89,2.29,6.93,4.99,10.95,13.36,11.32,21.8,0,0-2.52-1.6-2.52-1.6,5.31-2.16,11.13-2.32,16.71-1.58,0,0,.4.9.4.9,1.92,4.63-.03,9.82-3.07,13.45,0,0-1.77-2.96-1.77-2.96,3.7-.75,7.46-.76,11.11-.33l1.03.12c.4.86.8,1.8.95,2.68,1.47,8.18-5.47,14.55-11.81,18.39,0,0-1.35-3.36-1.35-3.36,8.35-2.27,18.53-1.52,25.57,4.26,4.74,3.7,8.03,8.77,10.45,14.18,3.08,6.65,4.66,14.13,4.04,21.47-2.55,26.85-29.41,38.81-52.4,44.91,0,0-.24.07-.24.07,0,0-.26,0-.26,0l-27.77-.3s-.29,0-.29,0c-12.67-4.57-25.09-9.54-36.45-16.96h0Z"/>
            </g>
            <g>
              <path class="cls-16" d="m116.5,191.84c8.52,5.18,12.91,4.61,15.07,1.93,2.19,2.89,6.85,3.7,16.24-1.43,24.04-13.13,17.49-26.68,17.49-26.68-6.61-3.08-12.48-2.86-17.41-1.09.15-2.17.06-4.16-.26-5.97-2.11-11.85-13.59-16.08-13.59-16.08-11.17,4.1-14.93,13.25-15.58,22.36-4.87-2.39-10.87-3.17-17.82.07,0,0-6.42,13.34,15.86,26.88Z"/>
              <path d="m117.49,190.2c3.28,1.83,9.53,5.66,12.58,2.36,0,0,1.54-1.84,1.54-1.84,0,0,1.48,1.89,1.48,1.89,1.01,1.3,2.52,1.62,4.18,1.51,4.96-.49,9.73-3.47,13.97-6.08,6.98-4.61,15.24-12.5,12.32-21.54,0,0,.92.9.92.9-5.01-2.38-10.73-2.95-15.95-1.02,0,0-2.82.93-2.82.93.26-2.99.72-6.38,0-9.28-.82-4.24-3.34-7.97-6.69-10.69-1.66-1.23-3.55-2.83-5.64-3.02,0,0,1.32,0,1.32,0-10.48,3.84-14.1,12.56-14.55,23.16,0,0-2.54-.87-2.54-.87-5.42-2.09-10.72-1.32-16.14.09-.07.03.92-.91.9-.9-3.3,10.65,7.01,19.37,15.13,24.41h0Zm-1.99,3.28c-9.78-5.9-21.19-16.82-16.59-29.35,0,0,.31-.71.31-.71l.6-.19s.02-.01.02-.01c5.62-3.99,13.74-3.68,19.45-.05,0,0-2.76,1.58-2.76,1.58.63-11.28,6.65-20.74,17.65-24.33,2.37,1.59,4.66,2.7,6.83,4.44,6,4.61,9.33,12.33,8.78,19.85,0,0-2.58-1.94-2.55-1.94,6.33-2.38,13.6-1.53,19.54,1.47,0,0,.23.59.23.59,5.07,14.75-11.08,26.11-22.59,31.27-4.33,1.92-10.99,3.39-14.39-1.18,0,0,3.02.05,3.02.05-4.7,5.5-12.69,1.41-17.56-1.49h0Z"/>
            </g>
            <g>
              <g>
                <path class="cls-18" d="m172.01,188.61c-.98-1.51-3.8-3.7-6.25-4.54-7.47-2.57-18.29,2.51-25.29,10.55-9.35,10.72-9.47,22.28-4.9,26.43,4.27,3.87,21.91-7.6,22.01-17.3.02-1.78,1.01-7.09,1.77-8.93,2.15-5.2,6.71-4.83,12.66-6.21Z"/>
                <path d="m169.7,187.67c-.38.53-.35,1.61.11,2.15-.55-.69-1.24-1.27-1.96-1.81-2.61-2.01-5.52-2.45-8.86-1.9-8.94,1.68-17,8.71-21.21,16.75-2.39,4.6-4.38,12.04-.69,16.27.14.17.16.2.64.25,1.76.11,4.09-.91,5.79-1.82,5.07-2.94,10.73-7.51,11.66-13.44.23-3.49.77-6.52,1.84-9.91,2.18-6.05,7.7-6.7,13.12-7.74,0,0,.22-.05.22-.05h.05c-.45.07-.84.7-.71,1.25h0Zm4.63,1.88c-.6.77-1.84,1.58-2.97,1.75-.13.02-.58.11-.72.13-3.41.7-7.83.67-9.12,4.46-.75,2.26-1.32,5.18-1.55,7.62-.04,1.08-.16,2.28-.47,3.29-2.49,8.03-11.65,15.44-19.7,17.25-2,.37-4.44.25-6.09-1.47-.26-.27-.61-.65-.86-.93-2.87-3.8-3.04-8.95-2.18-13.3,2.65-14.38,20.91-31.41,36.23-26.52,2.54,1.02,4.56,2.42,6.4,4.37.86.81,1.41,2.25,1.03,3.34h0Z"/>
              </g>
              <g>
                <path class="cls-18" d="m93.45,187.72c1.01-1.49,3.88-3.62,6.34-4.41,7.52-2.41,18.23,2.9,25.06,11.08,9.12,10.91,8.99,22.48,4.33,26.53-4.35,3.78-21.74-8.06-21.64-17.76.02-1.78-.86-7.11-1.58-8.97-2.04-5.24-6.6-4.97-12.52-6.47Z"/>
                <path d="m91.11,188.61c-.66-2.49,2.11-4.06,3.87-5.2,11.24-6.91,24.91,1.77,32.02,10.7,5.67,7.14,10.32,18.2,4.94,26.77-.29.46-.8.99-1.18,1.37-2.15,2.17-5.6,1.52-7.93.71-7.33-2.86-14.82-9.05-17.2-16.8-.3-1-.4-2.2-.42-3.28-.2-2.44-.71-5.38-1.43-7.65-1.23-3.81-5.65-3.85-9.04-4.65,0,0-.48-.1-.48-.1,0,0-.24-.05-.24-.05-1.12-.19-2.35-1.04-2.93-1.81h0Zm4.67-1.78c.13-.55-.23-1.18-.69-1.28,0,0,.05.01.05.01l.22.05c5.39,1.11,10.93,1.95,12.94,8.03.99,3.41,1.46,6.46,1.58,9.95.74,6.01,6.28,10.78,11.31,13.91,1.88,1,4.7,2.58,6.65,1.85,1.04-.97,1.65-2.16,2.04-3.61,2.73-13.33-10.66-28.29-23.24-30.89-4.25-.96-8.62.41-11.02,4.02-.01.02-.03.05-.03.06.12-.15.25-.35.33-.6.18-.51.08-1.14-.14-1.51h0Z"/>
              </g>
              <g>
                <path class="cls-18" d="m132.76,170.3s14.64,4.62,10.7,19.87c-3.94,15.25-7.69,12.6-10.92,31.1-.34,1.93-3.45-11.31-7.67-20.11-3.82-7.98-4.08-10.86-4.08-10.86,0,0-2.37-13.43,11.97-20Z"/>
                <path d="m132.6,167.8c.64-.01,1.21.2,1.76.43,6.85,2.73,12.34,9.41,12.05,17.02-.03.55-.12,1.89-.16,2.42-1.09,6.22-3.41,12.04-6.42,17.47-2.7,4.93-4.09,10.12-5.11,15.68-.18.93-.27,1.88-1.27,2.42-.52.28-1.03.32-1.55.19-.77-.25-.93-.54-1.05-.64-.17-.19-.17-.21-.25-.32-.89-1.6-1.18-3.11-1.75-4.72-1.67-5.19-3.52-11.04-5.84-15.88-1.67-3.66-3.47-7.38-4.18-11.39-.73-4.9,1.05-11.86,4.94-15.98,2.49-2.77,5.56-4.94,8.84-6.7h0Zm.31,4.99c-6.97,2.33-11.16,10.19-10.16,17.33.77,3.5,2.33,6.77,3.84,10.03,2.48,5.15,4.33,10.96,6.1,16.35.37,1.14.95,2.88,1.3,3.69-.04-.06-.02-.04-.14-.18-.08-.05-.19-.31-.91-.54-.5-.12-.98-.08-1.47.18-.56.35-.82.71-.95,1.23-.02.11.01-.06.01-.07,1-5.96,2.54-12.23,5.47-17.64,2.62-4.83,4.71-10.07,5.61-15.42.54-3.2-.03-6.6-1.85-9.31-1.8-2.57-4.58-4.56-7.53-5.67,0,0-.13-.05-.13-.05.19.08.55.13.82.08h0Z"/>
              </g>
            </g>
            <g>
              <g>
                <path class="cls-13" d="m119.48,227.53c12.04.11,13.24-1.65,10.34-6.84-3.32-5.94-8.64-12.47-13.9-11.47-5.26,1-8.62,6.55-7.5,12.39,1.11,5.84,5.57,5.87,11.06,5.92Z"/>
                <path d="m119.51,225.26c3.24,0,6.37.27,9.25-.7.36-.18.31-.23.3-.17.02.04,0-.08.01-.19-.04-.25-.18-.67-.28-.96-1.28-2.72-3.09-5.33-5.02-7.59-2.41-2.5-4.98-5.03-8.23-3.88-4.44,1.55-6.14,7.78-3.79,11.67,1.76,2,5.1,1.62,7.75,1.81h0Zm-.04,4.53c-7.92.43-13.74-1.64-13.74-10.74.09-9.39,10.37-16.33,18.11-9.44,3.86,3.3,6.65,7.54,8.79,12.07,3.34,8.32-8.08,8-13.15,8.11h0Z"/>
              </g>
              <g>
                <path class="cls-13" d="m135.72,215.38c-4.47,11.17-.08,12.77,5.81,11.95,6.74-.94,11.57-3.36,12.55-8.62.98-5.26-2.97-10.41-8.82-11.49-5.85-1.08-7.49,3.06-9.53,8.16Z"/>
                <path d="m137.6,216.14c-1.1,2.83-2.35,5.59-1.55,8.24.69,1.12,1.8,1.16,3.4,1.13,7.09-.51,14.85-3.99,11.56-11.38-1.49-3.06-6.71-6.12-9.9-4.02-1.63,1.36-2.58,3.94-3.51,6.02h0Zm-3.78-1.51c2.34-7.23,6.1-11.98,14.35-9.13,8.58,2.96,11.77,14.35,4.16,20.24-3.74,2.76-8.29,3.51-12.78,3.77-9.54.15-8.19-8.73-5.73-14.88h0Z"/>
              </g>
              <g>
                <path class="cls-13" d="m141.69,234.71c-7.51-9.4-13.11-5.74-15.3-.21-2.51,6.33-2.79,11.72,1.31,15.17,4.09,3.44,10.52,2.55,14.34-2,3.83-4.55,3.07-8.67-.35-12.96Z"/>
                <path d="m139.74,236.27c-3.18-4.03-7.7-7.86-10.82-1.82-1.6,3.48-3.18,8.53-1.23,11.87,2.29,3.97,7.99,4.17,11.29,1.23,3.79-3.28,4.33-7.22.76-11.28h0Zm3.91-3.12c2.02,2.53,3.75,5.98,3.29,9.4-1.02,6.8-7.71,11.96-14.54,11.32-5.23-.37-9.78-4.96-10-10.2-.26-3.99.88-7.72,2.45-11.27,4.77-9.34,13.68-6.01,18.8.75h0Z"/>
              </g>
              <g>
                <path class="cls-13" d="m147.13,224.57c-11.08,4.69-8.58,9.97-3.85,13.58,5.42,4.13,10.54,5.85,14.96,2.84,4.42-3.01,5.29-9.44,1.95-14.35-3.35-4.91-8-4.2-13.05-2.06Z"/>
                <path d="m148.1,226.88c-3.73,1.61-9.2,4.06-5.06,8.09,3.37,3.19,8.64,6.48,12.4,5,5.6-1.91,5.79-9.74,1.7-13.32-2.65-2.25-5.66-1.13-9.03.23h0Zm-1.95-4.6c6.77-3.1,13.71-2.42,17.02,5.04,3.96,8.18-1.75,18.53-11.36,17.27-3.16-.46-5.91-1.93-8.44-3.65-10.17-6.6-7.17-14.48,2.79-18.66h0Z"/>
              </g>
              <g>
                <path class="cls-13" d="m115.85,227.61c11.81-2.32,13.61,2.88,11.7,8.52-2.18,6.45-5.46,10.74-10.81,10.72-5.35-.02-9.67-4.86-9.65-10.8.02-5.95,3.36-7.38,8.75-8.44Z"/>
                <path d="m115.4,225.32c9.25-1.66,17.51,1.68,13.04,12.46-1.05,2.71-2.3,5.37-4.38,7.53-6.37,6.73-17.03,2.43-18.97-6.09-1.86-8.25,2.12-12.94,10.31-13.91h0Zm.9,4.58c-3.82.98-6.19,1.52-6.65,5.03-.99,5.42,3.61,11.56,9.42,9.9,4.4-1.34,7.05-7.25,7.63-11.6.29-5.64-6.59-4.16-10.4-3.33h0Z"/>
              </g>
              <path class="cls-7" d="m125.65,219.23c6.43,10.18,10.3,7.56,13.09,2.31,3.19-6.01,4.07-11.34.38-15.22s-10.17-3.7-14.48.4-1.92,7.87,1.02,12.51Z"/>
              <g>
                <path class="cls-17" d="m123.01,226.77c-.56,4.32,2.36,9.13,9.41,9.15,5.8.02,10.87-2.16,11.42-6.47.56-4.32-2.58-7.39-9.41-9.15-5.62-1.45-10.87,2.16-11.42,6.47Z"/>
                <path d="m124.53,226.96c-.31,7.34,8.77,7.32,13.74,5.51,3.77-1.18,4.85-5.36,1.72-7.93-3.24-2.53-8.24-4.6-12.18-2.38-1.87,1.05-3.17,2.98-3.28,4.8h0Zm-3.03-.39c1.15-5.75,7.79-8.72,13.17-7.57,2.48.55,5,1.23,7.39,2.79,6.2,4.01,4.78,12.63-1.91,15.19-8.3,3.64-20.02.26-18.65-10.42h0Z"/>
              </g>
            </g>
          </g>
        </g>
        <g>
          <g>
            <g>
              <path class="cls-15" d="m628.15,96.15c8.59-4.02,20.75.64,27.09,6.22,14,12.32,4.99,31.39-.9,46.81-8.13,21.26-27.32,37.45-32.31,34.17-4.73-3.11-.09-25.99,10.52-42.78,6.48-10.26,15.21-21.94,15.27-29.56.07-9.25-7.17-15.21-19.66-14.85Z"/>
              <path d="m625.71,96.72c.18-.5.42-1.39,1.14-2.22,1.92-1.92,4.01-1.85,6.36-2.32,6.1-.62,12.13,1.08,17.48,3.85,14.01,7.15,17.08,20.3,13.03,34.55-1.78,6.75-4.46,12.99-6.93,19.38-5.27,13.13-14.76,26.47-26.93,34.01-4.88,2.96-10.73,3.34-11.67-3.74-.64-5.44.49-10.35,1.73-15.46,1.28-4.89,2.98-9.63,5.02-14.23,3.89-9.14,10.16-17.13,15.17-25.57,3.11-5.49,7.13-11.73,4.96-18.13-1.55-4.7-6.18-7.19-10.9-7.93-1.58-.25-3.15-.26-4.76-.38-1.28-.1-2.82-1.03-3.68-1.81h0Zm4.86-1.16c.41-.46.42-1.47.01-1.8-.04-.05-.1-.06-.05-.06l.5.04c1.29.09,2.68.27,3.96.5,7.47,1.42,13.98,6.35,14.78,14.37,1.23,10.1-9.18,22.54-14.2,30.92-5.31,8.07-9.16,16.97-11.57,26.29-1.07,4.38-2.05,9.35-1.47,13.71.12.68.26,1.25.56,1.76.07.07.12.17.14.15-.11.02.58.17,1.5-.13,6.41-2.5,11.27-7.99,15.69-13.21,5.26-6.49,9.38-13.87,12.2-21.73,4.08-11.23,10.88-25.3,5.04-36.74-4.7-8.39-17.61-14.32-27.03-11.77-.09.05.4-.17.51-.76.15-.6-.18-1.27-.57-1.54h0Z"/>
            </g>
            <g>
              <path class="cls-15" d="m704.85,211.53c5.72-6.93,3.71-18.43-.41-24.93-9.11-14.37-29.6-9.51-45.88-6.81-22.45,3.72-42.26,18.04-40.1,22.98,2.05,4.69,25.35,4.3,43.96-2.33,11.36-4.05,24.6-9.87,32.05-8.68,9.05,1.44,13.35,8.8,10.38,19.78Z"/>
              <path d="m706,209.31c-.18-.45-.79-.92-1.43-.88-.41.03-.68.13-.86.39,0,0,.04-.08.04-.08,1.85-3.14,2.22-6.82,1.85-10.45-.89-8.68-6.11-16.31-15.03-18-8.85-1.89-18.34-.1-27.34,1.34-9.2,1.29-18.27,3.73-26.62,7.87-5.12,2.56-10.11,5.44-14.09,9.45-.91,1.01-1.69,1.87-1.99,2.98,0,0,.01.01.01.01-.02.05,0-.05-.04-.08,2.12,1.49,5.97,1.69,8.9,1.86,11.62.27,23.32-1.89,34.25-5.88,6.73-2.42,13.46-5.24,20.47-7.06,3.3-.84,7-1.56,10.54-1.13,7.84,1,13.21,6.84,13.44,14.74.1,1.84-.09,3.63-.36,5.42,0,.05-.03.23-.02.17,0-.01,0-.04-.01-.07-.17-.55-1.12-.86-1.71-.6h0Zm-2.29,4.44c-.63-1-1.16-2.83-.9-4.08.28-1.61.68-3.52.6-5.13.08-6.19-4.1-10.24-10.11-10.79-5-.31-10.05,1.5-14.85,3-9.04,3.03-17.93,7.1-27.38,8.99-7.67,1.61-28.48,4.91-34.09-1.15-2.98-4.29,2.1-8.82,5.03-11.41,11.55-9.33,25.81-14.5,40.35-16.68,9.66-1.62,19.47-3.63,29.43-1.53,5.17,1.09,10.27,3.92,13.54,8.19,4.83,6.36,6.76,14.73,5.08,22.54-.57,2.31-1.49,4.68-3.02,6.56-.78,1.03-2.79,1.56-3.68,1.49h0Z"/>
            </g>
            <g>
              <path class="cls-15" d="m597.14,116.41c11.49.69,21.75,12.7,25.28,22.33,7.79,21.25-12.87,36.36-28.09,49.39-20.99,17.96-50.83,24.1-54.25,17.71-3.24-6.06,14.97-27.76,36.01-39.52,12.85-7.18,28.93-14.58,33.41-22.67,5.44-9.82,1.17-20.37-12.36-27.22Z"/>
              <path d="m594.72,115.76c.46-.35,1.17-1.01,2.26-1.38,1.05-.38,2.26-.28,2.83-.16,2.46.48,4.83,1.31,7.05,2.47,10.94,6,19.82,18.52,19.96,31.23-.27,18.72-17.94,30.97-30.72,42.03-7.62,6.43-16.33,11.54-25.56,15.25-6.71,2.81-31.63,10.96-33.08-.57.02-7,7.03-14.62,11.41-19.54,6.29-6.65,13.34-12.5,21.02-17.45,7.61-4.8,15.86-8.59,23.49-13.19,6.61-4.1,14.59-8.52,16.02-16.75,1.12-6.07-2.44-11.62-7.17-15.24-1.35-1.09-3.34-2.23-4.82-3.16-1.19-.76-2.2-2.37-2.71-3.54h0Zm4.83,1.31c.64-.15,1.23-.88,1.22-1.39.02-.04,0-.08.07-.03,0,0,.5.33.5.33,1.32.82,2.67,1.82,3.89,2.78,7.89,6.47,11.47,16.17,6.27,25.58-3.68,6.29-10.1,9.99-16.04,13.62-5.21,3.07-10.55,5.78-15.75,8.66-10.34,5.55-19.68,12.85-27.66,21.42-1.98,2.14-3.85,4.38-5.54,6.7-2.05,3.04-4.33,6.06-4.55,9.57.41,2.41,8.11,1.61,10.17,1.28,15.66-2.65,30.52-10.47,42.39-20.97,5.55-4.75,11.43-9.62,16.28-14.89,7.66-8.03,13.34-18.75,9.18-29.69-3.51-9.24-11.09-18.48-21.08-20.87-.16-.01.3.03.62-.45.35-.47.32-1.21.04-1.65h0Z"/>
            </g>
            <g>
              <path class="cls-15" d="m629.63,274.25c10.11-4.08,14.64-17.49,14.01-26.82-1.38-20.6-26.05-27.3-44.97-33.85-26.1-9.04-55.52-5.25-56.08,1.27-.53,6.19,24.53,19.28,48.23,22.99,14.46,2.27,31.95,3.73,39.2,9.32,8.81,6.78,9.13,17.12-.39,27.11Z"/>
              <path d="m631.7,272.84c.19-.71-.48-1.77-1.27-1.72-.08,0-.14.01-.18.04,0,0,.1-.06.1-.06,6.18-3.74,9.34-11.06,10.36-18.01,1.26-7.9-1.55-15.66-7.8-20.87-8.43-7.22-19.62-10.83-30.13-14.53-15.77-5.93-33.16-8.87-49.85-6-2.45.48-5.25,1.2-7.23,2.51-.32.19-.49.38-.7.62,0,0-.08.08-.08.08,0,.02,0,.04-.02.06-.05.16-.09-.04,0,.31,1.63,3.1,5.49,5.33,8.61,7.29,12.31,7.03,26.05,11.55,40.07,13.64,8.58,1.33,17.36,2.22,25.87,4.33,3.59.93,7.42,2.09,10.7,4.16,8.3,5.29,11.13,14.78,6.65,23.61-.94,1.97-2.17,3.76-3.48,5.47,0,0-.09.12-.09.12-.04.05-.05.07-.05.06,0,0,0-.01-.01-.03-.07-.53-.82-1.1-1.48-1.07h0Zm-4.14,2.81c.02-1.28.5-3.24,1.41-4.31,0,0,1.48-1.86,1.48-1.86,5.52-7.05,5.59-15.08-1.82-20.73-3-2.19-6.51-3.27-10.19-4.24-8.34-2.08-16.88-3.05-25.45-4.31-11.64-1.57-23.06-4.97-33.79-9.8-5.49-2.67-18.77-8.69-18.87-15.58.51-5.19,7.6-6.73,11.69-7.68,17.63-3.2,35.73-.38,52.41,5.67,11.17,3.84,22.76,7.37,32.07,15.3,4.79,4.09,8.5,9.92,9.5,16.24,1.44,9.39-1.3,19.29-7.49,26.52-1.71,1.93-3.81,3.61-6.11,4.83-.69.32-1.41.53-2.23.54-1.17.01-2.08-.41-2.62-.6h0Z"/>
            </g>
            <g>
              <path class="cls-15" d="m676.37,68.99c12.64-2.37,29.79,6.19,33.77,17.26,7.47,20.74-3.53,42.79-16.29,61-17.6,25.11-40.68,28.65-46.21,22.67-5.25-5.67.78-22.86,20.2-41.29,11.86-11.25,27.17-23.62,29.71-33.58,3.08-12.09-4.56-22.33-21.18-26.06Z"/>
              <path d="m673.87,68.95c.19-.4.49-1.05,1.13-1.63.63-.58,1.45-.88,2.05-.97.12-.03.32-.04.44-.06.2-.03.74-.08.95-.11,5.78-.51,11.64.7,16.94,2.95,6.1,2.66,11.73,6.56,15.42,12.32,6.44,11.51,5.23,26.05,1.01,38.04-3.14,8.98-7.76,17.17-12.98,25.01-8.55,13.21-20.56,25.3-36.3,29.34-6.27,1.7-16.82,1.71-18.56-6.37-1.33-6.78,1.86-13.29,4.98-19,9.3-16.37,25.17-27.16,37.78-40.61,3.81-4.27,7.91-8.7,9.04-14.42,2.41-11.94-7.87-19.29-18.34-21.64-1.56-.27-2.93-1.49-3.55-2.85h0Zm5,.09c.42-.44.4-1.47-.04-1.86-.11-.12-.2-.17-.31-.21,0,0,.15.04.15.04,12.69,3.22,24.26,12.96,21.22,27.25-2.4,11.12-15.58,21.6-23.55,29.25-8.89,8.04-17.73,16.63-23.65,27.11-2.42,4.36-7.32,14.41-2.83,18.26,7.88,4.11,20.47-2.33,27.05-7.31,9.6-7.13,16.42-17.32,22.38-27.58,7.5-13.2,13.32-28.9,9.17-44.01-1.71-7.63-8.06-12.79-15.18-15.96-4.69-2.02-9.82-3.24-14.92-2.76,0,0-.26.02-.26.02,0,0-.13.01-.13.01,0,0-.06,0-.06,0,.28-.07.7-.23.98-.81.25-.51.18-1.1,0-1.45h0Z"/>
            </g>
            <g>
              <path class="cls-15" d="m552.38,294.91c10.79-1.57,18.37-13.53,19.97-22.74,3.54-20.34-18.83-32.69-35.66-43.55-23.21-14.97-52.69-18.27-54.78-12.07-1.98,5.88,19.26,24.55,41.4,33.77,13.51,5.63,30.15,11.2,35.87,18.35,6.95,8.67,4.81,18.8-6.81,26.24Z"/>
              <path d="m554.72,294.04c.36-.64-.05-1.83-.82-1.97-.08-.01-.14-.02-.19,0,0,0,.11-.04.11-.04,6.89-2.17,11.69-8.53,14.33-15.04,3.1-7.38,2.21-15.58-2.63-22.13-6.48-9.01-16.5-15.17-25.82-21.26-13.92-9.5-30.11-16.48-47-17.65-2.5-.11-5.39-.08-7.62.72-.36.11-.56.26-.83.44,0,0-.09.06-.09.06,0,.02-.02.04-.03.05-.09.14-.08-.06-.08.3.06.67.62,1.88,1.31,2.93,3.02,4.47,7.43,8.32,11.68,11.77,8.91,7.06,18.76,12.93,29.34,17.18,8.02,3.33,16.34,6.27,24.1,10.35,3.27,1.75,6.72,3.79,9.41,6.57,6.81,7.11,7.31,17,.86,24.51-1.38,1.69-2.99,3.14-4.68,4.49,0,0-.11.09-.11.09-.05.04-.07.05-.06.04,0,0,0-.01,0-.03.06-.53-.54-1.26-1.18-1.39h0Zm-4.68,1.75c.32-1.24,1.26-3.03,2.39-3.85,1.57-1.24,3.47-2.63,4.73-4.16,5.85-6.34,4.5-14.45-1.72-19.9-4.19-3.52-9.52-5.89-14.56-8.17-5.25-2.27-10.62-4.39-16.02-6.55-10.94-4.29-21.23-10.3-30.5-17.53-4.71-3.89-16.17-12.89-14.64-19.61,1.7-4.91,9-4.74,13.18-4.69,17.88,1.07,34.8,8.1,49.57,17.94,9.94,6.38,20.36,12.56,27.53,22.47,3.68,5.11,5.91,11.65,5.38,18.03-.83,9.47-5.84,18.43-13.56,23.99-2.12,1.47-4.56,2.6-7.08,3.24-.74.14-1.49.18-2.29,0-1.14-.27-1.92-.89-2.4-1.21h0Z"/>
            </g>
            <g>
              <path class="cls-15" d="m527.81,122.22c11.49-.65,23.08,10.08,27.7,19.23,10.21,20.2-8.55,37.61-22.15,52.32-18.76,20.28-47.68,29.84-51.82,23.9-3.93-5.64,11.63-29.31,31.17-43.44,11.92-8.63,27.04-17.85,30.55-26.4,4.26-10.39-1.21-20.37-15.44-25.6Z"/>
              <path d="m525.34,121.85c.42-.4,1.04-1.13,2.08-1.63,1-.5,2.22-.54,2.8-.49,2.5.19,4.95.74,7.29,1.63,11.56,4.69,21.84,16.09,23.46,28.7,1.91,18.63-14.22,32.85-25.62,45.31-6.82,7.27-14.88,13.36-23.61,18.12-6.34,3.57-30.14,14.57-32.92,3.29-.79-6.95,5.28-15.33,9.06-20.74,5.47-7.34,11.79-13.97,18.85-19.78,7-5.65,14.76-10.38,21.8-15.83,6.09-4.84,13.5-10.16,13.96-18.5.41-6.16-3.78-11.26-8.89-14.3-1.47-.92-3.58-1.82-5.15-2.58-1.27-.62-2.46-2.1-3.1-3.2h0Zm4.95.74c.61-.23,1.12-1.02,1.05-1.53.01-.04-.01-.08.07-.04l.53.27c1.4.67,2.86,1.49,4.19,2.31,8.59,5.5,13.27,14.73,9.2,24.68-2.92,6.67-8.87,11.09-14.34,15.4-4.82,3.66-9.81,6.97-14.64,10.44-9.63,6.71-18.05,15.05-24.98,24.5-1.72,2.36-3.31,4.79-4.72,7.3-1.69,3.26-3.59,6.52-3.41,10.03.69,2.34,8.24.66,10.25.09,15.24-4.45,29.1-13.95,39.66-25.76,4.96-5.36,10.23-10.88,14.44-16.68,6.67-8.87,11.07-20.17,5.66-30.55-4.56-8.77-13.16-17.06-23.36-18.28-.16,0,.3,0,.56-.52.3-.5.18-1.24-.15-1.64h0Z"/>
            </g>
            <g>
              <g>
                <path class="cls-1" d="m568.75,198.5c-6.99,13.85-5.57,16.29,2.31,16,9.02-.33,19.87-2.61,21.67-9.28,1.8-6.67-2.94-13.84-10.57-16.01-7.63-2.17-10.21,2.97-13.4,9.29Z"/>
                <path d="m570.77,199.52c-1.75,3.63-4.14,7.53-4.43,11.51.03.44.04.62.29.85.84.57,2.68.6,3.9.56,6.36-.42,13.88-.99,18.65-5.53,3.84-4.78-.04-11.85-5.06-14.23-1.34-.7-2.87-1.21-4.27-1.41-5.02-.86-6.98,4.55-9.07,8.25h0Zm-4.05-2.04c2.64-5.69,6.17-12.21,13.74-11.13,8.39,1.03,16.02,8.74,14.91,17.55-.32,4.48-4.13,8.11-8.03,9.63-6.29,2.53-13.04,3.33-19.74,2.93-10.15-1.39-3.38-13.51-.88-18.98h0Z"/>
              </g>
              <g>
                <path class="cls-1" d="m574.06,224.45c-10.84-11.78-15.26-7.65-17.63-.36-2.72,8.35-2.56,15.37,3.18,19.61,5.75,4.24,14.16,2.72,18.79-3.4,4.63-6.12.6-10.48-4.35-15.85Z"/>
                <path d="m572.56,225.83c-3.47-3.75-10.28-11.15-13.33-3.44-2.1,5.3-3.95,13.2.1,17.81,5.03,5.93,14.9,3.54,18.23-3,2.14-4.4-2.37-8.13-4.99-11.36h0Zm2.99-2.75c4.03,4.04,9.35,9.9,6.28,16.11-2.72,5.74-8.67,9.52-15.05,9.39-6.37-.01-12.56-4.69-13.85-10.99-1.21-5.87.41-11.51,2.67-16.89,5.22-10.73,14.44-3.52,19.95,2.38h0Z"/>
              </g>
              <g>
                <path class="cls-1" d="m547.49,219.93c15.55-3.12,14.34-11.76,8.97-17.57-6.15-6.65-12.46-10.16-18.92-7.46-6.46,2.7-9.05,10.65-5.77,17.77,3.27,7.12,8.64,8.68,15.73,7.26Z"/>
                <path d="m547,217.48c7.32-1.42,14.51-4.86,8.57-12.64-4.32-5.16-11.57-11.36-18.3-7.36-5.68,3.32-5.91,11.16-2.33,16.22,2.66,4.2,7.11,4.87,12.05,3.78h0Zm.98,4.9c-9.6,2.11-16.89-2.32-19.35-11.88-3.34-15.25,12.05-24.42,24.15-14.55,2.35,1.79,4.48,3.82,6.36,6.05,8.3,10.66-.47,18.5-11.17,20.37h0Z"/>
              </g>
              <g>
                <path class="cls-1" d="m556.54,232.21c.69-15.59-7.07-15.82-14.08-12.48-8.03,3.82-13.01,8.72-11.92,15.62,1.09,6.9,8.3,11.7,16.09,10.74,7.8-.96,9.59-6.76,9.91-13.87Z"/>
                <path d="m554.05,232.1c.27-5.92-.07-13.85-7.84-11.42-4.4,1.48-9.32,4.11-12.08,7.95-5.71,9.28,5.5,17.85,14.45,14.64,4.59-1.68,5.22-6.3,5.48-11.17h0Zm5,.22c-.2,9.62-4.67,16.7-15.15,16.13-11.19-.32-20.1-12.09-13.38-22.27,3.61-4.91,8.8-7.81,14.46-9.79,11.11-3.27,14.55,6.76,14.07,15.93h0Z"/>
              </g>
              <g>
                <path class="cls-1" d="m570.73,194.24c-3.95,15.03-11.21,14.03-16.87,8.49-6.49-6.33-9.77-12.66-6.7-18.84,3.07-6.17,11.33-8.31,18.44-4.76,7.11,3.54,6.93,8.26,5.13,15.11Z"/>
                <path d="m572.99,194.84c-3.29,11.85-11.36,18.69-21.33,7.66-2.57-2.73-4.96-5.67-6.34-9.26-4.29-11.19,6.84-20.37,17.57-17.6,10.31,2.75,13.38,9.23,10.1,19.21h0Zm-4.52-1.19c1.19-5.11,1.67-8.89-2.6-11.52-6.18-4.43-16.74-2.88-18.15,5.55-.76,4.68,2.7,9.5,5.95,12.89,8.35,8.91,12.7,2.46,14.8-6.92h0Z"/>
              </g>
              <path class="cls-2" d="m575.19,210.54c-15.86,1.41-14.93,7.43-10.22,13.76,5.39,7.25,11.28,11.41,18.03,9.44,6.75-1.97,10.22-9.57,7.76-16.98-2.46-7.4-8.34-6.87-15.57-6.23Z"/>
              <g>
                <path class="cls-14" d="m567.01,203.76c-4.85-3.2-12.09-2.97-15.77,4.61-3.02,6.23-3.04,12.99,1.81,16.19,4.85,3.2,10.14,1.68,15.77-4.61,4.63-5.17,3.04-12.99-1.81-16.19Z"/>
                <path d="m565.64,205.85c-8.21-5.2-14.38,2.85-14.47,10.77-.03,5.21,5.09,8.73,9.73,6.82,2.33-.9,4.54-2.82,6.45-4.91,3.53-3.71,2.38-10.08-1.7-12.68h0Zm2.75-4.18c6.34,4.23,6.96,14.06,2.02,19.57-2.16,2.39-4.55,4.75-7.9,6.2-5.18,2.43-12.2-.12-14.38-5.47-1.43-3.38-1.11-7.02-.23-10.38,2.35-9.91,11.18-15.66,20.48-9.91h0Z"/>
              </g>
            </g>
            <g>
              <g>
                <path class="cls-1" d="m659.81,140c-.46,12.54,1.41,13.85,7.1,10.98,6.51-3.29,13.72-8.64,12.78-14.15s-6.84-9.17-13.18-8.19c-6.34.99-6.5,5.63-6.71,11.35Z"/>
                <path d="m662.08,140.09c-.13,3.18-.33,6.26.31,9.1.09.24.29.92.49.97.66.1,1.99-.47,2.78-.87,2.46-1.24,4.89-2.73,7.01-4.41,1.86-1.55,3.88-3.51,4.58-5.73,1.05-4.52-3.92-8.08-8.14-8.13-1.16-.06-2.42.08-3.45.39-3.76,1.01-3.26,5.43-3.59,8.69h0Zm-4.53-.16c-.16-8.54,2.15-14.09,11.81-13.9,9.77.31,17.21,11.06,9.52,19.01-3.85,4.04-8.58,6.94-13.73,8.92-8.35,2.55-7.6-9.02-7.6-14.04h0Z"/>
              </g>
              <g>
                <path class="cls-1" d="m672.48,157.28c-11.95-4.99-13.8-.47-13.08,5.69.83,7.06,3.31,12.16,8.97,13.33,5.66,1.17,11.33-2.79,12.66-8.85,1.33-6.06-3.1-7.9-8.55-10.18Z"/>
                <path d="m671.7,159.16c-2.67-1.09-7.8-3.4-9.79-1.24-.43.56-.67,1.64-.64,2.86.28,5.05,1.96,11.08,5.9,12.64,5.37,2.5,11.49-2.4,11.73-7.96.08-3.74-4.35-4.84-7.21-6.3h0Zm1.57-3.75c7.53,2.59,12.72,6.53,9.33,15.2-3.44,8.75-15.56,11.57-21.54,3.74-2.03-2.65-2.9-5.8-3.4-8.95-.28-1.84-.52-3.92-.31-5.89,1-8.75,10.42-6.35,15.92-4.09h0Z"/>
              </g>
              <g>
                <path class="cls-1" d="m651.43,162.93c10.37-7.55,6.56-13.49.65-15.94-6.77-2.8-12.59-3.25-16.43.91-3.84,4.17-3.05,10.88,1.76,15.01,4.81,4.12,9.28,3.46,14.01.02Z"/>
                <path d="m649.96,160.91c6.04-4.33,8.59-9.03.3-12.2-3.38-1.35-7.94-2.48-11.06-.8-4.83,2.48-4.82,9.07-1.05,12.61,3.6,3.61,7.61,3.71,11.81.4h0Zm2.94,4.04c-6.49,4.93-13.71,4.08-18.85-2.31-6.31-7.67-2.14-19.59,8.27-20,3.76-.16,7.26.91,10.65,2.25,11.05,4.73,8.15,14.37-.07,20.05h0Z"/>
              </g>
              <g>
                <path class="cls-1" d="m662.24,168.9c-4.76-11.69-10.54-9.24-14.56-4.42-4.61,5.52-6.61,10.81-3.48,15.5,3.13,4.7,10.05,5.8,15.45,2.45,5.4-3.34,4.76-8.21,2.59-13.54Z"/>
                <path d="m659.92,169.84c-1.68-4.14-4.37-9.79-8.9-5.6-3.56,3.39-7.36,8.88-5.81,12.91,1.99,5.95,10.55,6.35,14.6,2.24,2.62-2.68,1.52-5.93.11-9.55h0Zm4.63-1.89c3.21,7.32,2.16,14.4-5.96,17.56-8.6,3.67-19.52-2.26-17.93-12.32,1.02-4.95,3.87-8.88,7.45-12.34,7.31-6.44,13.74.13,16.44,7.09h0Z"/>
              </g>
              <g>
                <path class="cls-1" d="m659.83,136.21c2.17,12.38-3.49,14.09-9.53,11.94-6.91-2.46-11.46-6-11.29-11.58s5.52-9.93,11.94-9.73,7.88,3.72,8.87,9.37Z"/>
                <path d="m662.13,135.8c1.6,10.03-2.4,18.04-13.62,13.16-2.85-1.15-5.63-2.51-7.9-4.71-7.17-6.95-2-17.83,7.09-19.52,8.68-1.58,13.54,2.4,14.43,11.07h0Zm-4.6.81c-1.11-6.17-3.26-7.81-8.98-7.22-4.65.49-8.92,4.86-7.55,9.67,1.42,4.72,7.71,7.55,12.34,8.34,6.13.67,5.09-6.58,4.19-10.79h0Z"/>
              </g>
              <path class="cls-2" d="m668.61,146.68c-11.18,6.4-8.46,10.51-2.86,13.57,6.41,3.51,12.15,4.57,16.44.84,4.29-3.73,4.28-10.49-.03-15.1-4.31-4.61-8.45-2.23-13.54.69Z"/>
              <g>
                <path class="cls-14" d="m660.31,144.46c-4.65-.71-9.89,1.91-10.03,8.72-.11,5.6,2.16,10.57,6.8,11.28s8.02-2.19,10.03-8.72c1.65-5.36-2.16-10.57-6.8-11.28Z"/>
                <path d="m659.94,146.93c-7.39-1.05-9.07,6.68-6.57,12.17,1.53,3.44,6.25,4.39,8.81,1.61,1.34-1.36,2.32-3.47,3-5.62,1.29-3.71-1.62-7.69-5.24-8.16h0Zm.75-4.94c6.35,1.01,10.22,8.34,8.4,14.28-.79,2.53-1.75,5.11-3.78,7.39-4.56,5.23-13.19,3.59-15.58-2.87-3.87-9.07-.35-20.06,10.96-18.8h0Z"/>
              </g>
            </g>
            <g>
              <g>
                <path class="cls-1" d="m498.36,192.31c-6.81,17.88-4.75,20.69,4.87,19.34,11.02-1.55,24.04-5.74,25.4-14.15,1.35-8.41-5.37-16.6-15.01-18.29-9.64-1.69-12.15,4.95-15.25,13.1Z"/>
                <path d="m500.48,193.12c-1.1,3.14-5.81,13.98-3.27,16.29,1.26.7,3.56.47,5.17.26,6.29-.93,12.71-2.39,18.18-5.59,2.52-1.53,4.63-3.31,5.51-6,1.7-6.6-3.24-13.12-9.39-15.41-1.79-.71-3.79-1.15-5.62-1.22-6.54-.45-8.47,6.65-10.58,11.66h0Zm-4.24-1.61c2.35-6.65,5.45-14.76,13.94-15.02,2.9-.05,5.72.52,8.34,1.55,9.57,3.45,16.75,15.95,10.07,25.09-6.07,7.26-16.86,9.33-25.71,10.67-16.22,2.5-9.8-13.36-6.65-22.28h0Z"/>
              </g>
              <g>
                <path class="cls-1" d="m508.18,223.47c-14.8-13.07-19.7-7.44-21.68,1.81-2.27,10.59-1.19,19.18,6.41,23.65,7.59,4.47,17.72,1.53,22.62-6.57,4.9-8.1-.6-12.93-7.35-18.89Z"/>
                <path d="m506.84,225c-4.78-4.24-14.61-12.66-17.55-2.33-1.98,7-3.28,17,2.44,22.39,7.32,6.95,19.44,2.69,22.88-6.22,2.14-5.9-4-10.11-7.78-13.84h0Zm2.69-3.05c5.32,4.4,12.45,10.58,9.55,18.44-2.54,7.16-9.2,12.4-16.8,13.04-7.58.77-15.5-4-17.84-11.33-1.57-4.59-1.31-9.4-.56-14.02,2.79-19.02,13.7-16.56,25.65-6.12h0Z"/>
              </g>
              <g>
                <path class="cls-1" d="m475.02,221.31c18.68-5.81,16.09-16.26,8.76-22.69-8.4-7.37-16.58-10.87-24.17-6.74-7.58,4.13-9.74,14.22-4.82,22.54,4.92,8.31,11.71,9.55,20.22,6.9Z"/>
                <path d="m474.27,218.92c11.8-3.52,18-10.35,6.79-19.64-4.53-3.81-10.65-7.75-16.51-6.81-3.77.56-7.19,3.08-8.85,6.53-1.72,3.45-1.75,7.72-.33,11.43,3.53,8.53,9.85,11.58,18.91,8.49h0Zm1.49,4.77c-11.32,3.71-20.34-.55-24.59-11.73-3.84-9.94,1.59-22.15,12.68-23.84,7.59-1.17,14.52,3.12,20.1,7.67,5.74,4.41,10.42,12.03,5.75,18.99-3.26,4.8-8.71,7.16-13.95,8.91h0Z"/>
              </g>
              <g>
                <path class="cls-1" d="m487.68,235.22c-1.14-19.22-10.69-18.51-18.86-13.52-9.36,5.71-14.85,12.36-12.63,20.68,2.22,8.32,11.67,13.3,21.11,11.13,9.44-2.18,10.91-9.52,10.38-18.28Z"/>
                <path d="m485.19,235.37c-.38-7.34-2.09-17.67-11.85-13.48-5.34,2.46-11.08,6.36-14.06,11.55-2.85,5.11-1.05,11.65,3.61,15.09,4.57,3.53,11.41,4.14,16.65,1.77,5.68-2.67,5.99-8.85,5.65-14.93h0Zm4.99-.3c.93,11.59-3.31,20.46-15.98,21.18-13.4.98-25.51-11.86-18.76-24.88,2.38-4.31,6.1-7.46,10.03-10.14,14.77-10.48,23.82-2.69,24.71,13.84h0Z"/>
              </g>
              <g>
                <path class="cls-1" d="m500.24,186.84c-2.94,18.94-11.96,18.64-19.62,12.57-8.77-6.94-13.6-14.29-10.62-22.26,2.98-7.97,12.84-11.64,22.02-8.2,9.18,3.44,9.56,9.25,8.22,17.88Z"/>
                <path d="m502.55,187.2c-1.52,9.45-7.05,21.92-18.78,15.94-9.44-5.58-20.67-16.94-14.54-28.62,4.75-9.22,17.19-11.27,25.95-6.87,8.41,3.8,8.97,11.47,7.36,19.56h0Zm-4.62-.72c.91-6.41.89-11.7-4.94-14.4-8.49-4.79-21.58-1.25-22.21,9.63-.28,6.02,4.62,11.48,9.12,15.31,11.55,10.07,16.6,1.56,18.03-10.54h0Z"/>
              </g>
              <path class="cls-2" d="m507.79,206.26c-19.27,3.75-17.36,11.02-10.79,18.19,7.53,8.21,15.29,12.56,23.32,9.28,8.03-3.28,11.32-13.05,7.36-21.82-3.96-8.77-11.1-7.36-19.89-5.65Z"/>
              <g>
                <path class="cls-14" d="m496.9,198.99c-6.36-3.3-15.21-2.1-18.75,7.67-2.91,8.03-2.07,16.33,4.29,19.63,6.36,3.3,12.65.77,18.75-7.67,5.02-6.93,2.07-16.33-4.29-19.63Z"/>
                <path d="m495.75,201.21c-5.87-3.22-12.98-.89-15.42,5.58-1.32,3.17-2.1,6.75-1.69,10.05.55,6.7,7.78,10.68,13.5,7.53,2.86-1.48,5.34-4.16,7.44-7.02,3.99-5.22,1.8-13.28-3.83-16.14h0Zm2.3-4.44c6.05,3.17,8.7,10.56,7.42,17.02-.42,2.13-1.3,4.18-2.56,5.93-2.32,3.17-4.94,6.32-8.74,8.44-5.84,3.49-14.41,1.35-17.67-4.69-2.13-3.83-2.23-8.24-1.57-12.38,1.65-12.11,11.22-20.01,23.13-14.33h0Z"/>
              </g>
            </g>
            <g>
              <g>
                <path class="cls-1" d="m614.5,206.87c3.87-12.96,2.28-14.83-4.43-13.38-7.69,1.66-16.65,5.29-17.17,11.29-.52,6,4.64,11.42,11.53,12.11s8.31-4.12,10.07-10.02Z"/>
                <path d="m612.33,206.22c1-3.44,2.2-6.71,2.1-10.04-.02-.28-.09-.79-.31-.87-.71-.32-2.27-.07-3.24.14-2.92.63-5.86,1.52-8.54,2.71-2.39,1.12-5.05,2.63-6.41,4.79-2.41,4.53,1.88,9.74,6.38,10.97,1.22.39,2.58.58,3.77.54,4.29-.03,5.03-4.86,6.26-8.23h0Zm4.34,1.3c-2.17,8.86-5.9,13.94-15.86,11.16-9.96-2.93-14.78-15.95-4.73-22.08,5.07-3.16,10.77-4.9,16.65-5.56,9.23-.4,5.27,11.38,3.95,16.49h0Z"/>
              </g>
              <g>
                <path class="cls-1" d="m605.96,185.41c11.11,8.45,14.27,4.23,15.19-2.4,1.05-7.58-.16-13.58-5.74-16.34s-12.57-.16-15.6,5.8c-3.03,5.96,1.09,9.08,6.16,12.93Z"/>
                <path d="m607.19,183.79c2.54,1.88,7.32,5.73,10.06,3.94.64-.5,1.19-1.6,1.5-2.89,1.08-5.38,1.02-12.16-2.76-14.96-5.02-4.16-12.91-.66-14.69,5.22-1.12,3.96,3.25,6.37,5.89,8.7h0Zm-2.46,3.24c-7.07-4.75-11.4-10.05-5.56-18.14,4.45-6.14,13.98-7.87,19.86-2.67,4.27,3.59,5.01,9.59,4.43,14.74-1.12,14.08-9.44,12.99-18.73,6.08h0Z"/>
              </g>
              <g>
                <path class="cls-1" d="m629.45,185.22c-12.86,5.06-10.5,12.29-5,16.45,6.3,4.76,12.25,6.81,17.38,3.5,5.13-3.3,6.13-10.53,2.23-16.13-3.9-5.61-8.74-6.13-14.61-3.82Z"/>
                <path d="m630.36,187.54c-11.79,4.55-9.43,10.16.11,15.33,8.35,4.94,16.68-1.85,12.79-10.74-2.73-5.41-7.05-7.14-12.9-4.59h0Zm-1.83-4.65c8.02-3.35,15.21-.55,18.8,7.41,3.37,7.11-.06,16.54-8.15,18.36-5.49,1.27-10.78-1.44-15.1-4.45-11.11-7.63-6.42-17.3,4.45-21.31h0Z"/>
              </g>
              <g>
                <path class="cls-1" d="m619.8,176.07c1.8,13.48,8.49,12.49,13.99,8.55,6.3-4.51,9.83-9.48,7.83-15.23-1.99-5.75-8.91-8.77-15.46-6.75-6.54,2.02-7.19,7.27-6.37,13.42Z"/>
                <path d="m622.28,175.74c.66,4.91,2,11.57,8.04,8.38,4.66-2.61,10.15-7.29,9.65-12.07-.34-5.33-6.21-8.56-11.23-7.65-6.31.88-7.43,5.34-6.46,11.33h0Zm-4.96.66c-1.35-8.41,1.59-15.41,10.8-16.5,9.83-1.48,19.51,7.53,15.19,17.46-2.38,4.84-6.41,8.15-11.03,10.76-9.26,4.67-14.04-3.84-14.96-11.73h0Z"/>
              </g>
              <g>
                <path class="cls-1" d="m613.45,210.82c1.09-13.5,7.46-13.75,13.18-9.88,6.54,4.44,10.32,9.37,8.63,15.14-1.69,5.77-8.45,8.87-15.09,6.92-6.65-1.95-7.21-6.02-6.72-12.18Z"/>
                <path d="m611.12,210.63c1.02-10.8,7.22-18.02,17.53-9.96,2.64,1.96,5.17,4.13,6.92,7.02,5.52,9.1-2.75,18.91-12.57,18.2-9.38-.71-13.27-6.08-11.89-15.26h0Zm4.66.38c-.18,4.57-.1,7.56,3.82,9.16,5.76,2.81,14.46-.02,14.39-7.24-.21-5.34-6.06-10.05-10.7-12.14-6.34-2.46-7.29,5.51-7.52,10.21h0Z"/>
              </g>
              <path class="cls-2" d="m607.13,197.52c13.39-3.64,11.67-8.67,6.66-13.38-5.73-5.4-11.43-8.06-16.92-5.34-5.49,2.73-7.3,9.78-4.06,15.76,3.25,5.98,8.21,4.62,14.31,2.95Z"/>
              <g>
                <path class="cls-14" d="m615.18,202.08c4.66,2,10.83.69,12.82-6.37,1.64-5.81.62-11.61-4.04-13.61-4.66-2-8.96.11-12.82,6.37-3.18,5.15-.62,11.61,4.04,13.61Z"/>
                <path d="m616.16,199.78c7.56,3.14,11.52-4.57,10.39-11.12-.79-4.31-5.45-6.39-8.99-4.18-1.81,1.09-3.4,3.04-4.7,5.11-2.39,3.59-.43,8.67,3.31,10.19h0Zm-1.97,4.59c-6.25-2.73-8.3-11.29-4.84-16.91,1.5-2.41,3.2-4.83,5.9-6.63,6.13-4.13,14.44-.2,15.23,7.1,1.54,10.38-4.96,20.75-16.29,16.43h0Z"/>
              </g>
            </g>
          </g>
          <g>
            <path class="cls-8" d="m297.91,169.5c-3.15,3.73-21.94,9.86-38.5-.58-2.43-1.53-4.15-3.88-5.88-6.06,0,0-.04-.04-.09-.12-.94-1.13-8.66-10.63-14.12-24.99-5.32-14-26.34-17.87-31.34-15.39,5.38-5.95,31.54-31.55,86.15,10.59,0,0,2.18,1.84,3.25,2.75,13.77,11.63,2.29,31.73.54,33.81Z"/>
            <path class="cls-8" d="m310.42,160.08c-4.3,2.31-24.02,1.11-35.59-14.69-1.69-2.31-2.44-5.14-3.25-7.79,0,0-.02-.05-.05-.14-.46-1.4-4.15-13.07-3.95-28.43.2-14.97-17.93-26.3-23.5-25.83,7.19-3.56,40.92-17.76,76.24,41.5l2.02,3.75c8.53,15.87-9.53,30.36-11.92,31.64Z"/>
            <path class="cls-8" d="m304.27,183.99c-.11,4.88-10.87,21.45-30.31,23.75-2.85.34-5.67-.41-8.38-1.01,0,0-.05,0-.15-.03-1.45-.29-13.42-2.82-26.69-10.56-12.93-7.55-31.72,2.65-34.05,7.73.44-8.01,4.7-44.36,73.66-45.91,0,0,2.86.06,4.25.09,18.02.39,21.73,23.24,21.67,25.95Z"/>
            <g>
              <path class="cls-8" d="m436.53,160.18c4.67,1.78,24.73-2.53,34.77-21.03,1.47-2.71,1.9-5.81,2.43-8.75,0,0,.01-.05.03-.16.31-1.55,2.75-14.47.78-30.7-1.92-15.81,15.34-30.6,21.09-30.95-7.77-2.66-43.95-12.48-73.31,55.66l-1.63,4.28c-6.92,18.11,13.25,30.65,15.84,31.64Z"/>
              <path class="cls-8" d="m440.44,166c2.94,4.04,22.1,11.39,40.61,1.37,2.71-1.47,4.77-3.83,6.81-6,0,0,.04-.04.11-.12,1.11-1.13,10.21-10.62,17.42-25.29,7.03-14.3,29.56-17.25,34.58-14.41-5.06-6.47-30-34.46-91.81,6.59,0,0-2.49,1.81-3.7,2.69-15.68,11.39-5.64,32.91-4.01,35.16Z"/>
            </g>
            <g>
              <g>
                <path class="cls-10" d="m375.9,179.87s9.37-42.56,14.07-49.26c2.96-4.23,11.4-10.26,15.33-10.27,2.74,0,21.93,7.56,24.74,23.27,1.04,5.79-9.42,20.76-25.91,40.34-16.79,19.94-28.23-4.08-28.23-4.08Z"/>
                <path class="cls-10" d="m365.92,176.66s-6.92-43.35-11.93-49.82c-4-5.18-10.95-10.74-14.87-10.92-2.73-.12-22.23,6.61-25.72,22.18-1.29,5.74,8.52,21.15,24.14,41.42,15.92,20.65,28.38-2.86,28.38-2.86Z"/>
                <path class="cls-10" d="m362.06,175.84s-14.86-46.18-9.35-54.82c5.51-8.64,28.9-15.67,38.29,1.67,5.11,9.43-17.09,51.99-18.78,53.37-1.69,1.38-10.17-.22-10.17-.22Z"/>
              </g>
              <path class="cls-10" d="m381.81,210.68s33.96,16.24,41.3,16.12c7.34-.12,14.85-13.97,40.31-31.84,14.89-10.45-8.49-22.65-16-40.8-8.01-19.36-60.73,7.4-60.73,7.4l-27.56,43.8,22.68,5.31Z"/>
              <path class="cls-10" d="m357.53,206.13s-34.63,14.76-41.96,14.32c-7.33-.44-14.24-14.6-38.9-33.55-14.42-11.08,9.46-22.26,17.75-40.07,8.84-19,60.35,10.02,60.35,10.02l25.64,44.95-22.89,4.32Z"/>
              <path class="cls-10" d="m391.15,219.78s22.73-10.45,20.6-18.25c-2.13-7.8,37.15.96,45.77,21.44,8.63,20.48,6.05,13.99-16.04,30.25-22.09,16.26-47.72-27.54-50.33-33.44Z"/>
              <path class="cls-11" d="m411.4,157.14c-.91,13.5-34.07,27.57-40.48,30.16-.01.42-.06.77-.15,1.05,0,0-.18-.08-.53-.23-.54.86-1.04,1.48-1.5,1.81,0,0-.71-1.24-1.82-3.36-9.99-4.81-36.06-18.48-36.35-30.59-.36-14.97,2.91-19.64,9.1-20.71,5.13-.89,13.68,1.22,16.77,4,8.42-11.6,13.73-13.26,19.23-10.46,3.82,1.95,8.29,6.92,10.19,10.88,2.79-2.85,12.01-4.8,17.34-3.65,6.13,1.34,9.19,6.14,8.19,21.09Z"/>
              <path class="cls-10" d="m345.11,216.3s-22.25-11.42-19.79-19.12c2.46-7.7-37.15-.65-46.66,19.44-9.5,20.09-6.65,13.71,14.72,30.91,21.36,17.2,48.87-25.45,51.73-31.24Z"/>
              <path class="cls-10" d="m343.12,215s33.14,6.37,52.58,3.2c0,0,28.42,11.48,28.92,39.62.21,11.96,2.45,17.99-56.41,27.55-8.61,1.4-57.35-16.18-61.43-24.49-3.89-7.93,17.32-46.99,36.34-45.87Z"/>
              <path class="cls-11" d="m382.33,224.2s34.98,7.82,51.59-32.19c16.62-40.01-8.45-24.69-13.72-24.53-5.26.17-16.84,1.3-27.71,18.09-10.87,16.79-15.78,29.92-10.17,38.62Z"/>
              <path class="cls-11" d="m354.67,220.04s-35.28,6.3-50.16-34.39c-14.87-40.69,9.51-24.31,14.76-23.91,5.25.39,16.77,2.03,26.91,19.27,10.13,17.25,14.47,30.57,8.49,39.02Z"/>
              <path class="cls-11" d="m369.91,219.29s-17.75,3.61-20.06,2.05c-2.31-1.56-35.96-18.52-33.38-63.56.87-15.22,17.45-7.91,20.29-9.64,11.22-6.87,12.46-.09,19.16,13.82s13.75,57.19,14,57.33Z"/>
              <path class="cls-11" d="m365.55,221.36s17.58,4.37,19.95,2.92c2.37-1.45,36.73-16.95,36.09-62.06-.22-15.24-17.09-8.65-19.85-10.51-10.91-7.34-12.44-.63-19.73,12.98-7.29,13.61-16.21,56.54-16.46,56.67Z"/>
              <path class="cls-11" d="m354.44,221.6s20.67,6.55,27.91.25c7.23-6.31,27.8-51.21-7.94-73.6,0,0-46.82,10.81-19.97,73.35Z"/>
            </g>
          </g>
        </g>
        <g>
          <g>
            <g>
              <g>
                <path class="cls-15" d="m989.58,288.14c-10.41,5.15-25.42-.22-33.33-6.89-17.48-14.72-6.95-38.3-.15-57.34,9.39-26.25,32.45-46.59,38.65-42.7,5.88,3.68.8,31.82-11.73,52.67-7.65,12.73-18.04,27.28-17.91,36.61.16,11.33,9.18,18.43,24.47,17.65Z"/>
                <path d="m992,287.51c-.23.53-.52,1.45-1.29,2.33-.73.85-1.83,1.37-2.39,1.55-2.39.81-4.89,1.27-7.41,1.37-12.58.22-26.62-6.29-33.12-17.35-9.14-16.53.2-36.11,5.85-52.19,3.45-9.45,8.52-18.29,14.74-26.17,4.46-5.81,22.19-25.43,29.23-16.09,3.48,6.17,1.17,16.29-.21,22.82-2.17,8.98-5.41,17.64-9.67,25.82-4.26,8.02-9.59,15.48-13.97,23.33-3.74,6.91-8.51,14.79-5.64,22.71,2.06,5.89,7.97,8.97,13.93,9.77,1.73.28,4.04.28,5.8.36,1.41.07,3.1.97,4.13,1.73h0Zm-4.84,1.26c-.47.44-.64,1.38-.39,1.82,0,.05.04.07-.05.06-1.38-.1-2.84-.13-4.2-.36-8.25-.95-16.7-5.88-18.79-14.44-2.53-8.86,2.39-17.49,6.51-24.93,5.99-10.45,13.14-20.04,17.55-31.26,3.31-8.18,5.89-16.75,6.9-25.51.31-3.48.61-6.96-.5-10.06-.09-.27-.22-.42-.31-.62-.11-.12-.21-.28-.28-.3-.1-.19-1.1-.28-2.27.11-7.87,3.19-13.84,10.18-19.16,16.71-6.32,8.12-11.25,17.31-14.5,27.06-4.75,13.93-12.73,31.71-5.13,45.63,6.05,10.39,22.51,17.45,34.13,13.92.15-.07-.27.12-.3.7-.07.58.33,1.21.8,1.45h0Z"/>
              </g>
              <g>
                <path class="cls-15" d="m892.56,148.9c-6.81,8.64-4.05,22.66,1.17,30.52,11.53,17.35,36.5,10.86,56.36,7.12,27.39-5.16,51.27-23.22,48.49-29.22-2.63-5.68-31.16-4.59-53.77,4.03-13.81,5.27-29.86,12.74-39.01,11.49-11.12-1.52-16.58-10.42-13.25-23.94Z"/>
                <path d="m891.47,151.14c.18.71,1.29,1.3,1.95.88.07-.05.11-.08.13-.13,0,0-.05.1-.05.1-3.54,6.38-2.64,14.38-.05,20.99,2.85,7.56,9.22,12.96,17.31,14.39,11.01,2.1,22.63-.35,33.68-2.37,11.36-1.84,22.33-5.1,32.52-10.46,5.04-2.63,9.93-5.66,14.16-9.28,2.07-1.84,4.41-3.98,5.34-6.49.03-.1.02-.16.04-.24,0,0,.03-.11.03-.11,0-.02-.01-.04-.01-.06-.04-.17.1-.03-.16-.29-7.6-4.34-28.01-1.04-36.72.96-11.4,2.46-21.85,7.46-32.79,11.49-6.77,2.33-13.8,5-21.16,4.41-9.42-1.03-15.91-7.77-16.4-17.24-.17-2.2.01-4.37.31-6.53,0,0,.02-.15.02-.15.02-.09,0-.09.04-.06.33.42,1.27.53,1.82.17h0Zm2.2-4.49c.62,1.13,1.17,3.08.92,4.46-.29,2-.71,4.34-.57,6.34.06,6.89,4.47,12.04,11.25,13.13,1.27.28,2.56.31,3.86.27,5.51-.33,11.07-2.3,16.34-4.13,10.98-3.95,21.73-9.17,33.23-11.75,5.77-1.38,11.63-2.38,17.56-2.94,6.08-.5,12.03-.83,18.16.46,8.26,1.78,8.26,7.42,3.1,13.01-5.17,5.62-11.74,9.73-18.3,13.3-10.49,5.66-22.04,9.25-33.77,11.26-11.71,2.23-23.63,4.94-35.75,2.67-6.24-1.18-12.41-4.42-16.45-9.46-5.96-7.5-8.53-17.54-6.73-26.96.53-2.55,1.52-5.07,2.92-7.28.44-.62.96-1.16,1.67-1.58,1.01-.6,2.01-.68,2.58-.78h0Z"/>
              </g>
              <g>
                <path class="cls-15" d="m1027.01,262.49c-14.09-.54-26.97-14.97-31.55-26.66-10.1-25.82,14.78-44.87,33.07-61.23,25.22-22.55,61.6-30.87,65.96-23.13,4.13,7.34-17.58,34.39-43.03,49.36-15.54,9.14-35.04,18.63-40.31,28.65-6.4,12.17-.89,24.97,15.86,33Z"/>
                <path d="m1029.44,263.09c-.54.35-1.31,1.01-2.48,1.41-1.13.39-2.43.31-3.08.2-1.98-.36-3.93-.87-5.81-1.59-8.21-3.26-14.82-9.48-19.82-16.6-9.93-13.87-10.46-29.74-.8-43.92,7.26-10.94,17.51-19.4,27.18-27.94,15.22-13.77,33.95-23.91,54.26-27.65,19.84-3.19,23.08,5.54,12.03,21.02-6.51,9.12-14.56,17-23.22,24.02-11.35,9.41-24.99,15.63-37.36,23.38-6.46,4.22-13.75,8.53-17.48,15.38-4.86,9.69-.87,18.66,7.41,24.84,1.69,1.3,4.11,2.63,5.94,3.74,1.34.81,2.53,2.48,3.23,3.71h0Zm-4.85-1.2c-.76.1-1.35.74-1.64,1.19-.06.02-.07.04-.18-.03-.35-.23-1.46-.9-1.84-1.14-10.48-6.47-17.83-17.85-13.04-30.28,1.93-5.6,6.59-9.98,11.05-13.39,8.85-6.71,18.81-11.75,28.28-17.29,12.56-7.08,23.85-16.3,33.43-27.04,2.38-2.68,4.62-5.48,6.65-8.39,2.48-3.84,5.27-7.72,5.42-12.17-.1-1.27-1.09-1.62-3-2.1-3.2-.57-6.79-.2-10.08.35-6.94,1.19-13.78,3.54-20.33,6.38-11.5,5.01-22.13,11.97-31.3,20.51-11.61,10.55-25.17,21.25-30.59,36.26-3.56,9.78-.73,20.46,5.21,28.74,4.87,6.93,11.5,13.14,19.67,15.69.79.22,1.59.37,2.39.56.25.02-.13,0-.35.49-.26.48-.12,1.24.25,1.68h0Z"/>
              </g>
              <g>
                <path class="cls-15" d="m983,70.09c-12.28,5.27-17.45,21.81-16.44,33.22,2.24,25.19,32.62,32.73,55.98,40.25,32.2,10.37,68.12,4.95,68.63-3.05.48-7.59-30.56-22.95-59.67-26.86-17.77-2.39-39.22-3.72-48.25-10.36-10.97-8.06-11.64-20.72-.25-33.2Z"/>
                <path d="m980.96,71.54c-.26.74.28,1.89,1.08,1.85.03-.03-.12.08-.12.08-7.65,4.82-11.42,14.03-12.52,22.75-1.39,9.88,2.4,19.6,10.32,25.89,10.62,8.69,24.46,12.8,37.5,17.07,13.22,4.62,26.88,7.51,40.89,7.68,8.61.08,17.32-.38,25.43-3.05,2.03-.78,3.93-1.48,5.2-3.04.1-.38.26-.34.06-.89-5.28-9.06-29.72-17.69-40.05-20.52-17.04-5.01-34.97-4.81-52.29-8.7-4.39-1.03-9.06-2.34-13.07-4.75-10.11-6.2-13.71-17.33-8.54-28.1,1.09-2.4,2.52-4.59,4.07-6.68,0,0,.1-.14.1-.14.04-.06.06-.08.06-.08.02-.01.03-.02.05-.02.4.4,1.05.79,1.82.66h0Zm4.07-2.9c-.11,1.42-.65,3.51-1.63,4.71,0,0-.99,1.29-.99,1.29,0,0-.75.99-.75.99-6.7,9.05-6.51,19.15,2.96,26.04,0,0,.99.65.99.65,0,0,.49.33.49.33l.54.28,1.08.56c6.14,2.86,13.21,3.98,19.94,5.09,14,2.14,28.44,2.81,42.18,6.73,8.38,1.84,55.77,18.07,40.57,30.13-3.34,2.37-6.93,3.32-10.71,4.24-7.2,1.58-14.44,2.04-21.67,1.99-14.42-.06-28.75-2.93-42.37-7.57-13.71-4.39-27.94-8.42-39.46-17.8-5.88-4.81-10.49-11.69-11.86-19.28-1.98-11.2,1.05-23.34,8.3-32.18,1.99-2.36,4.45-4.42,7.15-5.94.73-.36,1.5-.62,2.38-.67,1.24-.07,2.23.29,2.85.44h0Z"/>
              </g>
              <g>
                <path class="cls-15" d="m931.26,322.68c-15.42,3.24-36.64-6.79-41.82-20.23-9.7-25.2,3.17-52.5,18.31-75.14,20.87-31.22,49.04-36.17,55.98-28.99,6.58,6.8-.34,28.02-23.63,51.1-14.22,14.1-32.64,29.65-35.48,41.91-3.45,14.89,6.18,27.22,26.64,31.35Z"/>
                <path d="m933.76,322.67c-.22.42-.55,1.08-1.22,1.68-.66.6-1.52.92-2.15,1.04-.14.04-.36.05-.51.08-.24.04-.88.11-1.14.15-6.97.75-14.08-.56-20.54-3.16-7.41-3.06-14.31-7.65-18.88-14.47-8.1-13.77-7.02-31.36-2.23-46.01,3.57-11.02,9-21.15,15.14-30.85,10.04-16.3,24.31-31.36,43.32-36.7,7.46-2.13,19.87-2.69,22.29,6.93,1.75,8.12-1.92,16.07-5.54,23.04-10.92,20.27-30.03,33.88-45.09,50.66-4.6,5.38-9.55,11.01-10.81,18.12-2.61,14.74,9.73,23.63,22.71,26.48.28.05.93.23,1.21.29,1.41.31,2.77,1.56,3.44,2.72h0Zm-5,.02c-.51.46-.58,1.6,0,1.97.02.01.05.02.05.02s-.18-.05-.18-.05c-15.42-3.56-29.62-14.8-26.38-32.18,1.43-7.86,6.85-14.31,11.91-20.12,14.98-16.56,33.73-30.04,44.35-50,2.96-5.59,8.79-18.39,2.83-23.09-4.25-2.43-9.8-1.57-14.57-.34-21.48,6.22-35.62,25.66-45.82,44.53-9.95,18.37-17.72,42.03-7.14,61.62,5.9,8.62,16.43,13.71,26.59,15.32,2.98.43,5.99.5,8.96.1-.17.03-.57.27-.77.79-.2.51-.07,1.09.17,1.42h0Z"/>
              </g>
              <g>
                <path class="cls-15" d="m1077.04,42.72c-13.17,2.21-22.13,17.05-23.85,28.37-3.79,25,23.93,39.53,44.83,52.37,28.82,17.71,65.01,20.96,67.4,13.31,2.27-7.26-24.25-29.54-51.6-40.24-16.7-6.53-37.22-12.91-44.42-21.5-8.75-10.43-6.4-22.89,7.63-32.32Z"/>
                <path d="m1074.72,43.65c-.43.65-.18,1.9.61,2.06.04-.02-.13.05-.13.05-8.57,2.87-14.42,10.92-17.55,19.13-3.69,9.27-2.32,19.61,3.88,27.6,8.25,10.96,20.73,18.24,32.38,25.47,11.75,7.62,24.33,13.66,37.91,17.16,8.34,2.12,16.91,3.74,25.43,3.06,2.16-.28,4.17-.5,5.77-1.73.19-.35.34-.27.27-.85-2.98-10.05-24.68-24.24-34.04-29.43-15.37-8.91-32.83-12.96-48.74-20.85-4.02-2.04-8.25-4.42-11.57-7.72-8.35-8.42-9.21-20.09-1.64-29.33,1.62-2.07,3.54-3.86,5.54-5.53,0,0,.13-.12.13-.12.06-.05.08-.06.08-.06.02,0,.04-.01.06,0,.3.49.82,1.01,1.61,1.08h0Zm4.65-1.85c-.45,1.35-1.46,3.25-2.7,4.19,0,0-1.26,1.02-1.26,1.02-1.59,1.28-3.15,2.7-4.43,4.26-6.43,7.38-5.66,16.48.97,23.39,5.43,5.31,12.99,8.29,19.95,11.31,13.09,5.4,26.97,9.47,39.38,16.54,7.71,3.77,49.9,30.78,32.27,38.89-3.8,1.52-7.52,1.58-11.41,1.58-7.37-.17-14.52-1.44-21.52-3.21-13.99-3.48-27.24-9.66-39.36-17.41-12.28-7.52-25.15-14.8-34.11-26.65-4.57-6.07-7.42-13.84-6.95-21.54.73-11.35,6.56-22.42,15.69-29.3,2.49-1.82,5.37-3.24,8.36-4.08,1.67-.54,4,.22,5.14,1.01h0Z"/>
              </g>
              <g>
                <path class="cls-15" d="m1111.75,253.52c-14.05,1.1-28.53-11.73-34.44-22.81-13.04-24.47,9.46-46.29,25.73-64.66,22.43-25.33,57.59-37.82,62.82-30.65,4.96,6.81-13.46,36.2-37,54.03-14.37,10.88-32.64,22.58-36.7,33.15-4.94,12.83,2.02,24.91,19.6,30.93Z"/>
                <path d="m1114.23,253.84c-.49.41-1.18,1.16-2.3,1.68-1.08.52-2.37.59-3.04.56-2.01-.13-4-.41-5.95-.9-8.54-2.28-15.82-7.69-21.62-14.18-11.48-12.62-13.85-28.32-5.9-43.52,5.94-11.71,15.14-21.31,23.75-30.91,13.52-15.45,30.93-27.69,50.67-33.77,19.29-5.49,23.58,2.86,14.39,19.48-5.41,9.82-12.48,18.58-20.27,26.56-10.18,10.66-23,18.43-34.39,27.56-5.92,4.94-12.67,10.08-15.57,17.3-3.7,10.19,1.3,18.64,10.25,23.81,1.83,1.1,4.38,2.14,6.34,3.02,1.42.64,2.8,2.17,3.64,3.31h0Zm-4.96-.63c-.75.19-1.25.89-1.49,1.37-.05.03-.07.05-.18,0-.38-.19-1.56-.72-1.96-.92-11.16-5.21-19.79-15.65-16.47-28.56,1.26-5.78,5.39-10.68,9.42-14.59,8.01-7.69,17.31-13.86,26.08-20.47,11.65-8.5,21.79-18.96,30.06-30.75,2.05-2.94,3.95-5.98,5.62-9.11,2.02-4.1,4.34-8.28,3.97-12.72-.24-1.25-1.27-1.48-3.22-1.74-3.25-.2-6.77.59-9.97,1.52-6.75,1.99-13.27,5.12-19.45,8.7-10.84,6.31-20.59,14.46-28.71,24.02-10.3,11.83-22.53,24.04-26.16,39.57-2.4,10.13,1.65,20.41,8.51,27.94,5.64,6.32,12.95,11.71,21.36,13.3.81.12,1.63.18,2.44.28.25,0-.13.01-.3.53-.2.51.02,1.24.44,1.64h0Z"/>
              </g>
            </g>
            <g>
              <g>
                <path class="cls-12" d="m1059.57,161.22c8.19-17.15,6.38-20.09-3.25-19.53-11.03.64-24.26,3.73-26.28,11.95-2.02,8.22,3.97,16.86,13.37,19.32,9.41,2.45,12.43-3.91,16.16-11.73Z"/>
                <path d="m1057.1,160.04c1.34-2.93,6.54-12.78,4.73-15.29-1.06-.68-3.31-.67-4.81-.59-4.23.25-8.51.84-12.54,1.91-4.35,1.33-9.49,3.08-11.4,7.38-2.08,6.16,2.14,12.66,7.81,15.33,9.66,4.59,12.26-.69,16.2-8.75h0Zm4.95,2.36c-2.13,4.38-3.8,8.98-8.24,12.09-4.62,3.2-10.89,2.01-15.59-.28-7.51-3.55-13.1-12.37-11.02-20.86.94-4.65,5.19-8.26,9.23-10,7.62-3.26,15.87-4.42,24.07-4.12,12.43,1.43,4.46,16.43,1.55,23.17h0Z"/>
              </g>
              <g>
                <path class="cls-12" d="m1052.38,129.58c13.59,14.14,18.89,8.96,21.6-.03,3.1-10.3,2.73-18.89-4.42-23.93-7.15-5.04-17.42-2.95-22.92,4.66-5.51,7.62-.45,12.85,5.75,19.29Z"/>
                <path d="m1054.31,127.72c3.26,3.28,6.81,7.39,11.54,8.11,2.42.04,3.45-1.76,4.57-4.19,2.41-6.55,4.42-16.1-.59-21.59-6.29-7-17.97-3.86-21.88,4.1-2.46,5.35,3.12,9.72,6.35,13.57h0Zm-3.86,3.71c-4.58-4.55-10.72-10.44-8.86-17.79,2.41-8.25,10.51-14.03,19.05-14.04,7.9-.15,15.69,5.49,17.46,13.27,1.2,4.82.53,9.66-.64,14.27-4.49,19.05-15.64,15.94-27.01,4.28h0Z"/>
              </g>
              <g>
                <path class="cls-12" d="m1085.03,134.41c-18.96,4.24-17.25,14.78-10.51,21.75,7.71,7.97,15.53,12.11,23.37,8.63,7.84-3.47,10.79-13.29,6.6-21.91-4.2-8.63-10.81-10.4-19.46-8.47Z"/>
                <path d="m1085.61,137.02c-8.91,1.98-18.13,6.47-10.35,16.3,5.53,6.32,14.74,13.77,23.05,8.59,6.5-3.98,7.19-12.98,3.33-19.16-3.26-6.09-9.32-7.45-16.03-5.73h0Zm-1.17-5.23c11.6-2.77,20.28,2.24,23.6,13.74,3.01,10.24-3.42,22-14.64,22.79-5.14.41-10.03-1.82-14.02-4.7-3.38-2.51-6.54-5.31-9.03-8.68-8.41-12.48,2.22-20.66,14.09-23.15h0Z"/>
              </g>
              <g>
                <path class="cls-12" d="m1073.62,119.61c-.43,19.11,9.08,19.18,17.57,14.91,9.73-4.89,15.7-11.03,14.18-19.44-1.52-8.41-10.47-14.11-19.99-12.72-9.52,1.39-11.57,8.54-11.76,17.25Z"/>
                <path d="m1076.37,119.68c-.2,7.1.47,17.37,10.29,14.06,5.42-1.97,11.4-5.35,14.72-10.19,3.17-4.74,1.94-11.2-2.31-14.93-4.15-3.81-10.81-4.97-16.09-3.04-5.71,2.18-6.45,8.07-6.62,14.09h0Zm-5.51-.12c.02-11.67,5.07-20.25,17.81-19.89,13.54.12,24.59,13.99,16.75,26.5-3.43,5.1-8.59,8.25-13.91,10.92-14.78,7.07-21.12-3.87-20.64-17.53h0Z"/>
              </g>
              <g>
                <path class="cls-12" d="m1057.26,166.48c4.44-18.51,13.35-17.47,20.43-10.85,8.12,7.58,12.3,15.25,8.7,22.89-3.6,7.64-13.65,10.48-22.46,6.33-8.8-4.15-8.71-9.92-6.68-18.36Z"/>
                <path d="m1054.3,165.77c2.37-9.58,9.41-21.59,20.81-14.47,9.11,6.49,19.43,18.84,12.31,30.21-5.58,9.08-18.52,10.29-27.12,5.05-8.32-4.6-8.43-12.58-6.01-20.79h0Zm5.93,1.42c-.9,4.09-1.34,8.18.04,10.51,1.5,2.73,5.37,4.69,8.44,5.52,7.04,2.12,15.77-1.54,16.78-9.34.82-5.68-3.54-11.51-7.58-15.53-10.42-10.62-15.39-2.61-17.68,8.83h0Z"/>
              </g>
              <path class="cls-6" d="m1051.37,146.65c19.38-2.15,18.08-9.5,12.15-17.13-6.79-8.73-14.12-13.67-22.33-11.08s-12.26,12-9.05,21c3.21,9,10.39,8.19,19.23,7.21Z"/>
              <g>
                <path class="cls-13" d="m1061.56,154.73c6.03,3.78,14.89,3.31,19.18-6.07,3.53-7.71,3.38-15.99-2.65-19.77s-12.46-1.78-19.18,6.07c-5.53,6.46-3.38,15.99,2.65,19.77Z"/>
                <path d="m1063.13,152.22c5.34,3.49,12.24,1.95,15.11-4.05,1.53-2.97,2.63-6.41,2.46-9.62,0-6.23-6.5-10.75-12.21-8.18-2.85,1.18-5.51,3.59-7.79,6.22-4.25,4.72-2.69,12.46,2.44,15.63h0Zm-3.15,5.01c-5.91-3.74-7.92-11.49-6.08-17.95.6-2.13,1.66-4.14,3.09-5.81,2.58-2.98,5.44-5.92,9.47-7.77,6.24-3.09,14.85-.17,17.64,6.27,1.84,4.08,1.53,8.52.55,12.65-2.69,12.17-13.03,19.36-24.67,12.62h0Z"/>
              </g>
            </g>
            <g>
              <g>
                <path class="cls-12" d="m949.63,235.28c.22-15.37-2.1-16.92-8.99-13.25-7.89,4.2-16.57,10.94-15.27,17.66,1.29,6.72,8.62,11.05,16.36,9.67,7.74-1.38,7.81-7.07,7.91-14.08Z"/>
                <path d="m946.89,235.24c.08-3.33.18-6.93-.38-10.11-.2-.89-.38-1.82-.89-2.24-.84-.09-2.45.63-3.41,1.15-4.38,2.39-8.74,5.21-11.87,9.04-1.36,1.75-2.32,3.38-2.26,5.43.58,4.91,5.59,8.03,10.4,8.07,8.27.15,8.19-4.45,8.41-11.34h0Zm5.48.08c.14,6.03-.17,13.37-6.93,16.09-2.32.91-4.75,1.26-7.13,1.21-8.74.05-18.17-8.15-15.37-17.45,2.79-7.55,10.35-11.97,16.98-15.6,12.36-6.58,12.43,7.3,12.45,15.75h0Z"/>
              </g>
              <g>
                <path class="cls-12" d="m933.65,214.47c14.77,5.79,16.91.2,15.86-7.32-1.2-8.62-4.38-14.8-11.34-16.09-6.96-1.28-13.8,3.72-15.27,11.17-1.47,7.46,4.01,9.59,10.74,12.24Z"/>
                <path d="m934.63,211.97c2.08.82,4.75,1.86,6.95,2.2,1.17.23,2.85.3,3.9-.12,3.4-1.27.61-10.82-.51-13.4-4.47-11.25-18.51-6.79-19.18,3.97-.05,4.4,5.43,5.69,8.84,7.35h0Zm-1.96,4.99c-5.67-1.9-13.1-4.98-13.11-12.24-.33-11.55,11.79-20.71,22.6-15.69,7.36,3.39,9.53,11.95,10.15,19.27.92,13.55-10.72,12.08-19.65,8.65h0Z"/>
              </g>
              <g>
                <path class="cls-12" d="m959.28,206.98c-12.5,9.52-7.68,16.69-.37,19.53,8.36,3.25,15.5,3.65,20.09-1.56,4.59-5.2,3.44-13.41-2.56-18.33-6-4.92-11.46-3.99-17.16.35Z"/>
                <path d="m960.9,209.11c-7.52,5.65-10.47,11.78.08,15.58,4.28,1.59,9.93,2.86,13.84.66,5.59-2.98,5.97-10.69,1.82-15.18-4.75-5.15-10.04-5.71-15.74-1.06h0Zm-3.25-4.26c7.71-6.1,16.25-5.3,22.64,2.24,5.84,6.66,5.02,17.92-3.19,22.38-5.57,3.07-12.15,1.74-17.77-.21-14.41-4.91-12.25-16.69-1.68-24.41h0Z"/>
              </g>
              <g>
                <path class="cls-12" d="m945.89,199.97c6.15,14.19,13.15,11.03,17.95,5.02,5.5-6.88,7.81-13.41,3.85-19.08-3.96-5.67-12.46-6.83-18.99-2.59s-5.61,10.18-2.81,16.65Z"/>
                <path d="m948.42,198.87c1.52,3.14,3.9,9.27,8.08,8.62,4.59-1.06,10.03-9.54,10.68-14.09,1.07-8.28-8.37-12.36-15.15-9.03-6.7,2.98-6.53,8.17-3.6,14.5h0Zm-5.05,2.19c-4.05-8.79-3.07-17.2,6.65-21.28,10.28-4.63,23.52,2.13,21.91,14.31-1.1,6.01-4.48,10.87-8.71,15.14-8.64,7.84-16.21.4-19.86-8.16h0Z"/>
              </g>
              <g>
                <path class="cls-12" d="m949.72,239.93c-2.99-15.1,3.9-17.35,11.35-14.88,8.53,2.83,14.19,7.05,14.13,13.88-.06,6.83-6.49,12.31-14.36,12.24-7.87-.07-9.75-4.35-11.12-11.24Z"/>
                <path d="m946.73,240.52c-2.2-12.43,2.57-22.31,16.55-16.62,3.53,1.34,6.98,2.93,9.84,5.58,9.03,8.46,3.03,21.96-8.2,24.36-10.77,2.17-16.82-2.55-18.19-13.32h0Zm5.98-1.18c1.47,6.9,3.63,9.38,10.96,8.45,5.59-.7,10.66-6.05,8.92-11.82-1.21-4.29-6.34-7.12-10.56-8.66-10.97-4.15-11.45,3.2-9.32,12.03h0Z"/>
              </g>
              <path class="cls-6" d="m938.68,227.35c13.51-8.13,10.07-13.09,3.14-16.69-7.94-4.12-14.99-5.27-20.15-.59-5.15,4.68-4.96,12.96.45,18.49,5.4,5.53,10.4,2.5,16.57-1.2Z"/>
              <g>
                <path class="cls-13" d="m948.9,229.84c5.71.74,12.06-2.6,12.04-10.94,0-6.86-2.92-12.89-8.63-13.63-5.71-.74-9.76,2.9-12.04,10.94-1.88,6.61,2.92,12.89,8.63,13.63Z"/>
                <path d="m949.28,226.91c9.17,1.07,11.06-8.47,7.81-15.22-1.98-4.23-7.88-5.28-10.97-1.75-1.62,1.73-2.76,4.34-3.54,7-1.47,4.66,2.17,9.45,6.7,9.98h0Zm-.76,5.87c-5.86-.78-10.06-6.04-10.92-11.63-.29-1.83-.18-3.74.32-5.51.9-3.11,2-6.29,4.42-9.12,5.47-6.48,15.86-4.74,19.01,3.08,2.05,4.94,2.82,10.19,1.07,15.27-1.93,5.55-8.32,8.77-13.89,7.91h0Z"/>
              </g>
            </g>
            <g>
              <g>
                <path class="cls-12" d="m1145.93,166.91c7.86-22.08,5.27-25.46-6.48-23.55-13.45,2.19-29.29,7.67-30.72,18.01-1.43,10.34,7.02,20.18,18.87,21.99,11.85,1.81,14.74-6.38,18.33-16.45Z"/>
                <path d="m1143.35,165.99c1.94-5.86,4.83-12.29,4.45-18.43-.25-1.93-1.58-2.09-3.57-2.16-9.49.68-25.23,4.52-31.07,12.35-1.3,1.8-1.78,3.86-1.69,6.03.18,7.12,5.65,13.08,12.27,15.45,2.22.83,4.67,1.31,6.93,1.35,8.03.38,10.23-8.38,12.68-14.59h0Zm5.17,1.84c-2.45,7.51-6.02,17.58-15.41,18.59-3.9.53-7.89-.24-11.47-1.52-16.09-5.81-23.1-26.98-6.05-36.44,7.45-4.34,15.86-6.38,24.23-7.7,19.82-3.44,12.29,16.03,8.71,27.06h0Z"/>
              </g>
              <g>
                <path class="cls-12" d="m1133.07,129.02c18.48,15.61,24.32,8.59,26.5-2.79,2.49-13.03.94-23.52-8.48-28.79-9.42-5.27-21.74-1.4-27.53,8.64-5.78,10.04,1.08,15.82,9.51,22.94Z"/>
                <path d="m1134.8,126.97c4.54,3.69,9.56,8.33,15.62,8.58,5.64-.47,6.35-8.9,7.04-13.5.53-4.81.55-9.95-1.23-14.38-2.45-6.33-9.41-10.07-16.04-9.22-6.63.71-12.91,5.73-15.2,11.99-2.45,7.2,5.13,12.11,9.81,16.53h0Zm-3.46,4.09c-5.39-4.54-12.48-9.59-12.93-17.54-.11-1.64.2-3.43.65-4.99,4.99-15.6,25.31-22.5,37.67-10.84,7.98,7.48,7.49,19.39,5.43,29.18-4.07,20.69-18.93,14.21-30.83,4.19h0Z"/>
              </g>
              <g>
                <path class="cls-12" d="m1173.74,130.78c-22.72,7.62-19.27,20.34-10.12,28.02,10.48,8.8,20.6,12.87,29.77,7.61,9.17-5.26,11.55-17.67,5.3-27.72-6.25-10.05-14.59-11.38-24.95-7.91Z"/>
                <path d="m1174.59,133.32c-21.76,7.17-19.04,18.86-1.39,29.39,4.47,2.64,9.49,4.29,14.18,3.44,10.41-1.82,15.01-13.35,11.03-22.69-.95-2.24-2.34-4.51-3.92-6.36-4.93-6.16-12.55-6.46-19.9-3.78h0Zm-1.7-5.08c9.33-3.22,18.92-2.5,25.4,5.68,5.87,7.04,8.25,17.17,4.22,25.77-2.59,5.72-8.08,10-14.29,11.1-9.15,1.6-17.67-3.44-24.54-8.81-17.43-13.56-9.18-27.93,9.21-33.74h0Z"/>
              </g>
              <g>
                <path class="cls-12" d="m1157.86,114.08c1.91,23.5,13.58,22.38,23.46,16.05,11.31-7.24,17.85-15.53,14.92-25.66-2.94-10.13-14.65-15.98-26.15-13.06-11.5,2.92-13.1,11.95-12.23,22.67Z"/>
                <path d="m1160.6,113.86c1.16,16.18,6.91,23.34,21.88,12.56,4.12-2.88,8.15-6.36,10.44-10.79,3.44-6.43.94-14.62-4.9-18.73-5.78-4.28-14.27-4.89-20.72-1.77-7.06,3.33-7.32,11.81-6.7,18.72h0Zm-5.49.45c-.88-9.05.57-19.62,9.95-23.82,11.01-5.09,25.89-1.6,31.87,9.41,7.45,14.2-3.61,25.86-15.19,32.86-16.96,10.32-25.47-2.03-26.63-18.44h0Z"/>
              </g>
              <g>
                <path class="cls-12" d="m1143.77,173.66c3.09-23.27,14.15-23.14,23.69-15.92,10.92,8.27,17.03,17.14,13.6,26.97-3.44,9.84-15.41,14.59-26.74,10.62-11.33-3.97-11.95-11.06-10.54-21.68Z"/>
                <path d="m1140.75,173.26c2.62-18.33,13.09-29.73,29.86-15.36,6.51,5.36,13.16,12.2,13.55,21.21.4,9.46-7.04,17.78-16.02,19.85-7.03,1.78-14.72.4-20.85-3.4-7.94-4.95-7.95-14.18-6.54-22.3h0Zm6.04.8c-.9,7.87-.79,14.15,6.34,17.3,2.14,1.04,4.41,1.76,6.73,2.11,17.25,2.31,26.75-14.33,14.13-27.4-14.56-15.47-24.91-14.76-27.19,8h0Z"/>
              </g>
              <path class="cls-6" d="m1134.01,150.08c23.5-5.11,20.97-13.96,12.72-22.56-9.44-9.85-19.06-14.97-28.8-10.74-9.74,4.23-13.51,16.28-8.43,26.91,5.08,10.63,13.79,8.72,24.51,6.39Z"/>
              <g>
                <path class="cls-13" d="m1147.54,158.69c7.88,3.87,18.68,2.16,22.76-9.89,3.35-9.91,2.1-20.05-5.78-23.92-7.88-3.87-15.51-.6-22.76,9.89-5.96,8.62-2.1,20.05,5.78,23.92Z"/>
                <path d="m1148.84,156.04c7.44,3.76,15.94.8,18.86-7.31,1.53-3.93,2.39-8.34,1.8-12.39-.89-8.27-9.84-12.97-16.86-8.92-3.48,1.9-6.45,5.26-8.94,8.82-4.77,6.59-1.89,16.38,5.14,19.8h0Zm-2.61,5.31c-7.45-3.69-10.89-12.63-9.5-20.53.45-2.61,1.47-5.13,2.96-7.3,2.75-3.94,5.87-7.85,10.45-10.54,7.02-4.41,17.51-2.02,21.65,5.24,2.71,4.61,2.94,10,2.25,15.05-.77,5.01-2.22,9.97-5.59,13.97-5.22,6.49-14.99,7.83-22.23,4.11h0Z"/>
              </g>
            </g>
            <g>
              <g>
                <path class="cls-12" d="m1003.33,152.2c-4.4,15.97-2.39,18.22,5.79,16.26,9.37-2.24,20.25-6.92,20.72-14.28.47-7.36-5.99-13.86-14.44-14.52-8.45-.66-10.06,5.26-12.07,12.54Z"/>
                <path d="m1005.98,152.93c-.99,3.47-2.06,7.2-2.34,10.7-.05,1.03-.06,1.93.29,2.63.05.08.06.08.14.13.91.36,2.81.03,4-.26,5.24-1.31,10.57-3.07,14.92-6.24,4.29-3,5.17-6.91,2.51-11.34-2.36-3.89-7.51-6.16-12.04-5.9-5.27.15-6.06,6.1-7.47,10.28h0Zm-5.29-1.46c1.59-6.68,3.97-14.29,12.32-14.81,9.18-.72,18.97,5.9,19.66,15.55.61,4.89-2.67,9.58-6.53,12.05-6.11,4-13.05,6.26-20.21,7.27-11.18.72-6.81-13.61-5.25-20.06h0Z"/>
              </g>
              <g>
                <path class="cls-12" d="m1014.36,178.24c-13.83-10.05-17.58-4.79-18.53,3.34-1.08,9.31.55,16.63,7.47,19.85,6.91,3.23,15.4-.14,18.95-7.52,3.56-7.38-1.58-11.09-7.89-15.67Z"/>
                <path d="m1012.79,180.41c-1.96-1.43-4.48-3.24-6.7-4.19-1.19-.56-2.95-1.1-4.2-.95-4.08.4-3.77,11.22-3.3,14.34,1.61,13.2,17.88,12.43,21.54,1.09,1.26-4.74-4.14-7.57-7.34-10.29h0Zm3.15-4.33c5.31,3.5,12.18,8.62,10.24,16.09-2.76,11.93-17.66,18.15-27.44,10.1-6.69-5.47-6.62-14.9-5.31-22.63,2.66-14.22,14.26-9.48,22.51-3.57h0Z"/>
              </g>
              <g>
                <path class="cls-12" d="m985.6,179.11c15.62-6.54,12.53-15.33,5.68-20.27-7.84-5.66-15.18-8.01-21.38-3.82-6.19,4.18-7.22,13.06-2.3,19.81,4.92,6.76,10.87,7.27,17.99,4.28Z"/>
                <path d="m984.57,176.63c7.36-3.03,14.16-8.13,6.31-15.02-5.61-4.49-14.49-9.45-20.69-3.85-5.24,4.67-3.82,12.92.98,17.46,3.66,3.83,8.46,3.59,13.4,1.41h0Zm2.07,4.94c-9.65,4.23-18.13,1.15-22.76-8.36-4.23-8.48-.42-19.78,9.27-22.23,6.58-1.67,13.04,1.48,18.33,5.01,13.47,9.04,8.41,20.16-4.83,25.57h0Z"/>
              </g>
              <g>
                <path class="cls-12" d="m997.66,190.05c-2.57-16.46-10.73-15.07-17.37-10.1-7.6,5.69-11.78,11.87-9.18,18.86,2.6,6.99,11.15,10.5,19.11,7.85,7.96-2.65,8.61-9.1,7.44-16.61Z"/>
                <path d="m994.94,190.47c-.76-3.81-1.61-10.86-6.28-11.34-5.13-.18-13.22,7.3-15.15,11.92-3.97,10.86,9.43,17.39,18.1,12.18,4.42-2.71,4.08-7.62,3.33-12.76h0Zm5.44-.85c1.82,10.16-1.39,18.55-12.53,20.17-11.84,2.03-23.69-8.47-18.78-20.6,2.75-5.92,7.58-10.06,13.1-13.33,11.03-5.77,16.74,3.97,18.2,13.76h0Z"/>
              </g>
              <g>
                <path class="cls-12" d="m1004.51,147.33c-.97,16.56-8.77,17.04-15.87,12.45-8.13-5.26-12.89-11.2-10.98-18.31,1.91-7.11,10.11-11.08,18.3-8.87,8.19,2.21,8.99,7.18,8.55,14.73Z"/>
                <path d="m1007.55,147.51c-1.04,13.43-8.51,22.38-21.46,12.75-3.3-2.34-6.46-4.93-8.7-8.45-7.03-11.15,2.8-23.43,15.02-22.87,11.71.69,16.57,7.07,15.14,18.57h0Zm-6.08-.36c.41-8.36-1.73-11-9.37-12.04-6.14-.78-12.98,3.56-12.69,10.17.14,4.87,4.73,9.21,8.76,12,10.41,7.38,13.11-.19,13.29-10.12h0Z"/>
              </g>
              <path class="cls-6" d="m1012.61,163.44c-16.3,4.82-14.05,10.92-7.8,16.56,7.17,6.45,14.21,9.57,20.86,6.08,6.65-3.49,8.68-12.17,4.55-19.41-4.13-7.23-10.17-5.43-17.61-3.23Z"/>
              <g>
                <path class="cls-13" d="m1002.62,158.07c-5.75-2.32-13.28-.56-15.53,8.15-1.85,7.15-.44,14.24,5.31,16.56,5.75,2.32,10.96-.38,15.53-8.15,3.75-6.39.44-14.24-5.31-16.56Z"/>
                <path d="m1001.52,160.82c-9.47-3.64-14.1,5.9-12.54,14.01.91,5.09,6.97,7.87,11.25,4.93,2.2-1.39,4.1-3.83,5.64-6.41,2.85-4.55.33-10.69-4.36-12.53h0Zm2.21-5.49c5.8,2.36,8.74,8.88,8.14,14.86-.19,1.96-.81,3.89-1.8,5.58-1.77,2.98-3.78,5.98-7.02,8.24-7.39,5.17-17.51.66-18.71-8.23-.8-5.64-.17-11.29,3.01-16.06,3.48-5.18,10.88-6.77,16.38-4.39h0Z"/>
              </g>
            </g>
          </g>
          <g>
            <g>
              <path class="cls-8" d="m1230.37,166.86c-2.68,2.17-16.53,3.92-26.63-5.52-1.48-1.38-2.37-3.25-3.28-4.98,0,0-.02-.03-.05-.09-.51-.91-4.6-8.53-6.47-19.22-1.83-10.42-15.9-15.9-19.7-14.85,4.52-3.41,26.08-17.7,58.36,18.8l1.89,2.34c8.01,9.9-2.63,22.32-4.12,23.53Z"/>
              <path class="cls-8" d="m1222.92,175.05c-1.7,3-13.94,9.72-26.8,4.65-1.88-.74-3.39-2.15-4.88-3.43,0,0-.03-.02-.08-.07-.8-.66-7.41-6.24-13.08-15.5-5.53-9.02-20.63-8.95-23.78-6.57,2.95-4.84,17.75-26.04,61.19-3.95l2.62,1.48c11.08,6.26,5.75,21.73,4.81,23.4Z"/>
              <path class="cls-8" d="m1229.23,184.27c.57,3.4-4.73,16.32-17.92,20.46-1.93.61-3.99.46-5.95.4,0,0-.04,0-.11,0-1.04,0-9.69-.2-19.92-3.83-9.97-3.54-21.67,6.01-22.62,9.83-.74-5.62-2.56-31.41,45.11-41.54l2.97-.49c12.56-2.09,18.13,13.28,18.45,15.17Z"/>
            </g>
            <g>
              <path class="cls-8" d="m1271.26,239.26c-3.07,1.75-9.72,14.63-4.13,28.4.82,2.02,2.32,3.65,3.68,5.25,0,0,.02.03.07.09.71.87,6.66,7.99,16.4,14.2,9.49,6.05,9.8,22.1,7.42,25.4,4.94-3.05,26.54-18.38,2.54-64.98l-1.6-2.81c-6.78-11.9-22.67-6.53-24.37-5.56Z"/>
              <path class="cls-8" d="m1266.33,238.78c-3.52-.21-16.13,6.95-18.98,21.54-.42,2.14-.05,4.32.21,6.41,0,0,0,.04.01.11.12,1.11,1.21,10.33,5.98,20.85,4.65,10.25-3.86,23.87-7.66,25.33,5.8.14,32.27-.9,37.61-53.04,0,0,.13-2.17.19-3.23.82-13.67-15.42-17.85-17.38-17.97Z"/>
            </g>
            <g>
              <g>
                <g>
                  <path class="cls-9" d="m1292.11,176.74s25.51-17.23,31.18-18.38c3.58-.73,10.83.3,12.85,2.2,1.4,1.33,7.55,14.54,1.34,23.96-2.29,3.47-14.93,6.04-32.9,8.05-18.31,2.04-12.47-15.83-12.47-15.83Z"/>
                  <path class="cls-9" d="m1288.56,170.24s17.55-25.57,18.14-31.32c.47-4.6-.38-10.83-2.3-12.83-1.34-1.39-14.6-7.44-23.97-1.16-3.45,2.31-5.93,14.97-7.8,32.96-1.9,18.32,15.92,12.35,15.92,12.35Z"/>
                  <path class="cls-9" d="m1286.98,167.94s14.86-30.88,21.89-32.62,22.43,6.04,18.8,19.49c-1.97,7.31-34.05,18.31-35.59,18.19s-5.1-5.06-5.1-5.06Z"/>
                </g>
                <path class="cls-9" d="m1280.13,195.39s9.49,24.84,13.3,28.35,14.41.08,36.14,3.32c12.71,1.9,6.67-15.73,11.66-28.68,5.32-13.82-34.7-25.77-34.7-25.77l-35.43,9.02,9.03,13.76Z"/>
                <path class="cls-9" d="m1269.92,181.25s-24.91-9.3-28.45-13.09-.18-14.41-3.59-36.11c-1.99-12.69,15.68-6.79,28.59-11.88,13.78-5.43,26.03,34.5,26.03,34.5l-8.75,35.5-13.82-8.93Z"/>
                <path class="cls-9" d="m1280.49,204.6s16.72,5.71,19.43.68,18.55,18.57,13,33.26c-5.55,14.69-3.71,10.11-22.93,7.68-19.22-2.42-11.04-37.33-9.5-41.62Z"/>
                <path class="cls-9" d="m1258.61,180.41s-5.84-16.68-.83-19.42c5.01-2.75-18.71-18.41-33.35-12.75-14.64,5.66-10.08,3.79-7.51,22.99,2.57,19.21,37.41,10.75,41.69,9.18Z"/>
                <path class="cls-9" d="m1258.22,178.77s13.87,19.39,25.37,27.23c0,0,8.96,19.71-4.47,34.36-5.71,6.23-7.5,10.4-42.29-13.35-5.09-3.47-21.49-36.2-19.54-42.44,1.87-5.96,31.74-15.64,40.93-5.81Z"/>
              </g>
              <g>
                <path class="cls-4" d="m1321.35,182.38c-7.04,6.47-30.86-2.46-35.41-4.25-.21.21-.41.36-.58.46,0,0-.05-.13-.16-.37-.7.18-1.25.25-1.65.2,0,0,.24-.98.7-2.6-2.78-7.33-9.47-27.01-3.73-33.35,7.11-7.84,11.05-8.64,14.74-6.18,3.06,2.04,6.41,7.28,6.64,10.21,9.95-1.84,13.49-.11,14.94,4,1.01,2.86.88,7.57-.08,10.53,2.81-.1,8.49,3.38,10.65,6.57,2.49,3.67,1.72,7.62-6.07,14.78Z"/>
                <path class="cls-4" d="m1273.82,202.57s14.1,21.03,42.08,8.63c27.98-12.4,7.69-16.76,4.91-19.23s-9.26-7.53-23-4.22c-13.74,3.31-22.64,7.64-24,14.83Z"/>
                <path class="cls-4" d="m1261.69,186.98s-21.13-13.94-8.95-42.02c12.19-28.07,16.7-7.82,19.2-5.06,2.5,2.76,7.6,9.2,4.4,22.96-3.2,13.76-7.47,22.7-14.65,24.11Z"/>
                <path class="cls-4" d="m1269.85,194.01s-10.85-6.79-11.27-8.71-9.4-26.99,13.84-48.79c7.85-7.37,12.78,4.44,15.08,4.94,9.09,1.94,6.42,6.02,3.08,16.4-3.34,10.38-20.79,35.98-20.73,36.17Z"/>
                <path class="cls-4" d="m1266.61,192.94s6.88,10.8,8.8,11.2,27.06,9.2,48.68-14.21c7.31-7.91-4.54-12.75-5.05-15.04-2.01-9.07-6.06-6.38-16.42-2.96s-35.82,21.06-36.01,21.01Z"/>
                <path class="cls-4" d="m1260.81,187.66s7.4,13.42,14.17,13.71c6.77.29,39.16-12.7,31.76-41.55,0,0-29.24-17.25-45.92,27.84Z"/>
              </g>
            </g>
          </g>
        </g>
        <g id="blomst.1.2-2" data-name="blomst.1.2">
          <g>
            <path class="cls-5" d="m860,64.87c-.2.03-2.7-2.7-8.25-5.17-1.7-.76-9.33-2.68-13.63-2.73-11.84-.13-23.12,3.85-24.03,29.75-.12,3.4,1.08,13.51,5.53,20.59,15.59,24.78,25.39,29.07,39.97,52.24,10.05,15.97,17.97,40.95,9.99,48.15-9.74,8.8-45-4.66-64.05-31.34-11.59-16.24-9.63-48.5-9.08-68.59.34-12.39-.96-20.43,5.74-36.72,11.35-27.57,41.04-24.55,52.28-14.07,6.72,6.27,5.75,7.86,5.52,7.89Z"/>
            <path class="cls-5" d="m732.96,66.2c.2.03,2.7-2.7,8.25-5.17,1.7-.76,9.33-2.68,13.63-2.73,11.84-.13,23.12,3.85,24.03,29.75.12,3.4-.98,11.64-5.53,20.59-13.27,26.1-25.39,29.07-39.97,52.24-10.05,15.97-17.97,40.95-9.99,48.15,9.74,8.8,45-4.66,64.05-31.34,11.59-16.24,9.63-48.5,9.08-68.59-.34-12.39.96-20.43-5.74-36.72-11.35-27.57-41.04-24.55-52.28-14.07-6.72,6.27-5.75,7.86-5.52,7.89Z"/>
          </g>
          <path class="cls-5" d="m899.16,106.07c-.17-.02-1.68-2.84-5.79-6.09-1.26-1-7.22-4.24-10.8-5.2-9.87-2.65-28.28-4.33-34.6,17.12-.83,2.81-3.18,8.01-1.83,18.15,3.34,25.04,14.98,29.74,22.2,52.24,4.98,15.5,6.23,38.08-1.98,42.39-10.03,5.26-36.61-13.55-46.8-39.94-6.2-16.06,2.69-42.51,7.12-59.27,5.02-18.96,12.22-27.9,27.4-34.24,15.63-6.52,35.01-4.1,42.14,7.08,4.27,6.68,3.12,7.8,2.92,7.78Z"/>
          <path class="cls-5" d="m910.62,145.59c-.11-.03-.46-2.47-2.43-5.5-.6-.93-3.8-4.12-5.94-5.24-5.91-3.07-20.77-7.02-29.82,9.9-1.19,2.22-3.53,6.48-2.63,14.95,2.16,20.42,4.92,18.49,4.56,37.51-.25,13.11-9.09,38.51-15.49,41.27-7.82,3.37-21.07-14.42-21.79-36.9-.43-13.68,11.46-34.45,18.21-47.72,7.63-15.02,14.42-21.65,25.89-25.43,11.8-3.89,27.12.77,29.29,10.54,1.29,5.85.28,6.65.16,6.62Z"/>
          <g>
            <path class="cls-5" d="m693.23,105.37c.17-.02,1.68-2.84,5.79-6.09,1.26-1,7.22-4.24,10.8-5.2,9.87-2.65,28.28-4.33,34.6,17.12.83,2.81,3.18,8.01,1.83,18.15-3.34,25.04-14.98,29.74-22.2,52.24-4.98,15.5-6.23,38.08,1.98,42.39,10.03,5.26,36.61-13.55,46.8-39.94,6.2-16.06-2.69-42.51-7.12-59.27-5.02-18.96-12.22-27.9-27.4-34.24-15.63-6.52-35.01-4.1-42.14,7.08-4.27,6.68-3.12,7.8-2.92,7.78Z"/>
            <path class="cls-5" d="m681.77,144.9c.11-.03.46-2.47,2.43-5.5.6-.93,3.8-4.12,5.94-5.24,5.91-3.07,20.77-7.02,29.82,9.9,1.19,2.22,3.53,6.48,2.63,14.95-2.16,20.42-4.92,18.49-4.56,37.51.25,13.11,9.09,38.51,15.49,41.27,7.82,3.37,21.07-14.42,21.79-36.9.43-13.68-11.46-34.45-18.21-47.72-7.63-15.02-14.42-21.65-25.89-25.43-11.8-3.89-27.12.77-29.29,10.54-1.29,5.85-.28,6.65-.16,6.62Z"/>
          </g>
          <g>
            <g>
              <path class="cls-1" d="m899.34,228.55c-14.96-7.75-24.46-2.56-28.73,1.12-5.11,3.93-13.25,9.29-22.43,11.56-21.35,5.29-41.79,1.01-44.49-9.85-2.69-10.87,11.58-21.95,34.73-29.49,9.3-3.03,16.76-3.47,22.45-2.11,33.25,5.56,38.45,28.77,38.45,28.77Z"/>
              <path d="m900.87,230.53c-1.18.32-3.01.16-4.17-.54-7.15-3.72-16.34-4.84-23.21.03-7.67,5.93-16.22,11.01-25.78,13.2-9.5,2.18-19.4,2.84-29.04.87-15.67-2.99-23.45-15.46-10.78-28.01,9.62-9.48,33.16-19.18,46.72-19.05,3.72-.02,7.34.83,10.98,1.57,3.57.79,7.16,1.88,10.54,3.28,10.4,4.17,19.69,11.94,24.3,22.34.46,1.04.87,2.12,1.2,3.22,0,0,.07.26.07.26l.04.14c.04.23-.06-.43.09.54.1.8-.45,1.82-.96,2.16h0Zm-3.05-3.96c-.51.3-1.07,1.28-.98,2.05.13.93.03.24.06.43-.09-.35-.29-1.02-.41-1.37-5.89-16.15-22.47-24.09-38.6-26.38-13.5-2.13-44.97,10.03-51.41,22.54-4.88,9.56,4.7,15.22,12.94,16.83,9,1.87,18.53,1.1,27.46-1,9.06-2.08,17.11-7.2,24.28-12.99,8.03-5.92,18.98-5.2,27.64-1.13,0,0,.22.09.22.09,0,0-.06-.02-.1-.03-.51-.05-1,.44-1.09.96h0Z"/>
            </g>
            <g>
              <path class="cls-1" d="m862.36,276.86c-5.85-12.13-14.42-13.37-18.91-13.06-5.15.06-12.93-.41-19.89-3.36-16.2-6.85-27.22-19.39-23.73-27.64,3.49-8.24,17.93-8.48,36.36-2.21,7.4,2.52,12.39,5.82,15.37,9.42,18.6,19.5,10.8,36.85,10.8,36.85Z"/>
              <path d="m862.39,279.36c-2.64-.81-3.29-4.03-4.83-6.01-2.83-4.19-7.31-7.37-12.46-7.53-12.1.37-23.25-2.65-33.19-9.69-4.83-3.38-9.43-7.48-12.39-12.72-3.66-6.12-2.63-13.8,4.26-17.02,7.69-3.38,15.86-1.89,23.6-.28,7.62,1.89,15.26,4.02,21.71,8.82,9.04,7.63,16.29,18.5,17.18,30.6.26,4.1-.12,8.34-1.59,12.21-.11.21.21-.38-.25.47-.4.69-1.45,1.18-2.05,1.14h0Zm-.07-5c-.59-.06-1.63.39-2.02,1.06-.45.83-.12.21-.22.39l.02-.05s.05-.12.05-.12c1.18-3.12,1.54-6.5,1.41-9.83-.51-10.81-6.91-20.67-14.92-27.68-5.61-4.32-12.95-6.55-20.12-8.39-7.6-1.88-26.06-4.58-25.52,7.27,1.07,6.82,7.34,12.31,12.91,16.18,9.77,6.72,19.51,9.19,31.32,8.54,8.13.05,14.95,5.84,18.64,12.71,0,0,.1.17.1.17-.3-.53-1.18-.58-1.66-.24h0Z"/>
            </g>
            <g>
              <path class="cls-1" d="m694.63,229.49c14.96-7.75,24.46-2.56,28.73,1.12,5.11,3.93,13.25,9.29,22.43,11.56,21.35,5.29,41.79,1.01,44.49-9.85,2.69-10.87-11.58-21.95-34.73-29.49-9.3-3.03-16.76-3.47-22.45-2.11-33.25,5.56-38.45,28.77-38.45,28.77Z"/>
              <path d="m696.15,227.51c-.09-.55-.66-1.1-1.19-.94,0,0,.22-.09.22-.09,8.66-4.06,19.61-4.79,27.64,1.13,7.17,5.79,15.22,10.92,24.28,12.99,8.93,2.1,18.46,2.87,27.46,1.01,8.22-1.62,17.82-7.23,12.94-16.83-6.43-12.5-37.9-24.67-51.41-22.54-16.12,2.29-32.7,10.23-38.6,26.38,0,0-.24.75-.24.75-.03.12-.15.48-.17.62.03-.2-.08.5.06-.43.09-.76-.47-1.74-.98-2.05h0Zm-3.05,3.96c-.5-.34-1.05-1.35-.96-2.16.14-.97.05-.31.09-.54,0,0,.04-.14.04-.14l.07-.26c.33-1.1.74-2.18,1.2-3.22,4.61-10.4,13.9-18.16,24.3-22.34,3.38-1.4,6.97-2.49,10.54-3.28,3.64-.74,7.26-1.59,10.98-1.57,13.56-.14,37.08,9.56,46.72,19.04,12.62,12.51,4.97,25-10.78,28.01-9.64,1.96-19.54,1.31-29.04-.87-9.56-2.19-18.12-7.27-25.78-13.2-6.87-4.87-16.06-3.76-23.21-.03-1.16.69-3,.86-4.17.54h0Z"/>
            </g>
            <g>
              <path class="cls-1" d="m729.37,276.88c5.85-12.13,14.42-13.37,18.91-13.06,5.15.06,12.93-.41,19.89-3.36,16.2-6.85,27.22-19.39,23.73-27.64-3.49-8.24-17.93-8.48-36.36-2.21-7.4,2.52-12.39,5.82-15.37,9.42-18.6,19.5-10.8,36.85-10.8,36.85Z"/>
              <path d="m729.4,274.38c-.47-.35-1.36-.28-1.66.24,0,0,.1-.17.1-.17,3.69-6.87,10.51-12.66,18.64-12.71,11.81.65,21.54-1.82,31.31-8.54,5.57-3.87,11.83-9.36,12.91-16.18.56-11.86-17.95-9.15-25.52-7.27-7.17,1.84-14.51,4.08-20.12,8.39-9.29,8.08-16.48,20.29-14.67,32.91.25,1.62.61,3.21,1.21,4.72,0,0,.02.05.02.05-.1-.18.24.44-.22-.39-.39-.67-1.43-1.12-2.02-1.06h0Zm-.07,5c-.61.04-1.65-.45-2.05-1.14-.46-.86-.14-.27-.25-.47-1.46-3.87-1.85-8.12-1.59-12.21.89-12.1,8.14-22.96,17.18-30.6,6.46-4.79,14.09-6.92,21.71-8.82,7.75-1.62,15.91-3.1,23.6.28,6.88,3.23,7.93,10.86,4.26,17.02-2.96,5.24-7.56,9.33-12.39,12.72-9.95,7.04-21.09,10.06-33.19,9.69-5.14.16-9.63,3.34-12.46,7.53-1.54,1.98-2.2,5.21-4.83,6.01h0Z"/>
            </g>
            <g>
              <path class="cls-1" d="m814.94,279.7c1.12-8.45-2.98-12.08-5.46-13.48-2.75-1.76-6.69-4.71-9.35-8.69-6.18-9.25-7.65-19.71-2.95-22.86,4.71-3.15,12.43,1.75,19.99,11.47,3.04,3.91,4.53,7.38,4.86,10.32,3.06,16.78-7.09,23.24-7.09,23.24Z"/>
              <path d="m813.59,281.8c-.71-1.06-1.12-2.64-.92-4.02.43-3.7-.75-7.78-4.1-9.74-3.97-2.63-7.63-5.86-10.22-9.92-3.72-6.08-7.71-14.89-4.59-22.13,7.77-12.99,26.59,8.29,29.43,16.69,2.97,9.53,1.97,21.46-5.97,28.39-.23.18-.61.51-.85.67-.2.11.4-.21-.46.25-.71.36-1.85.18-2.33-.18h0Zm2.69-4.21c-.47-.38-1.58-.56-2.28-.22-.84.45-.23.12-.41.22h.02s.06-.05.06-.05c0,0,.13-.09.13-.09,5.12-3.86,7.03-10.65,6.64-16.89-.17-2.14-.37-4.47-1.04-6.56-1.37-4.04-4.41-7.77-7.52-11.2-2.93-3.04-6.63-6.51-10.75-7.22-7.4-.58-4.86,10.3-2.99,14.53,2.39,6.11,6.83,11.23,12.56,14.48,4.85,2.65,7.07,8.39,6.82,13.69-.02-.37-.68-.81-1.23-.69h0Z"/>
            </g>
            <g>
              <path class="cls-1" d="m769.68,279.3c-.55-8.5,3.79-11.85,6.35-13.08,2.86-1.57,6.99-4.25,9.91-8.04,6.79-8.82,8.96-19.16,4.47-22.61-4.49-3.45-12.52.91-20.72,10.1-3.29,3.69-5.01,7.06-5.54,9.97-4.18,16.54,5.52,23.66,5.52,23.66Z"/>
              <path d="m768.48,277.11c-.52-.18-1.25.26-1.28.6.11-5.31,2.7-10.88,7.72-13.2,5.93-2.85,10.7-7.68,13.5-13.61,2.16-4.11,5.41-14.76-2.01-14.69-4.15.43-8.08,3.65-11.21,6.48-3.33,3.22-6.62,6.73-8.25,10.67-.81,2.04-1.17,4.35-1.48,6.47-.81,6.2.64,13.1,5.49,17.3,0,0,.13.1.13.1l.06.04s.02.02.02.02c-.18-.11.41.26-.39-.25-.67-.39-1.8-.28-2.29.06h0Zm2.4,4.39c-.51.33-1.65.43-2.34.03-.82-.51-.25-.16-.44-.28l-.07-.05s-.12-.1-.12-.1c-5.99-5.39-7.83-14.13-6.59-21.81.64-5.22,2.64-10.16,6.15-13.99,4.96-5.34,11.01-11.8,18.72-12.68,3.03-.31,6.43,1.54,7.54,4.51,2.62,7.46-1.94,15.94-6.07,21.78-2.86,3.88-6.73,6.86-10.87,9.21-3.47,1.73-4.93,5.72-4.74,9.44,0,.1,0,.31,0,.41.07,1.19-.54,2.72-1.19,3.54h0Z"/>
            </g>
          </g>
          <g id="RIGTIG-2" data-name="RIGTIG">
            <g>
              <path class="cls-12" d="m753.34,213.2c10.51,7.01,28.65,12.97,28.65,12.97h22.16s18.06-5.05,28.11-13.51c13.05-10.99,15.45-26.67,6.49-41.62-6.44-10.73-16.03-11.89-24.74-9.83,11.78-7.25,8.28-14.3,8.28-14.3-3.29-.35-6.07-.17-8.4.34,4.18-5.13,2.16-9.18,2.16-9.18-5.05-.54-8.89.18-11.77,1.38-.08-1.28-.25-2.48-.49-3.59-2.24-10.43-10.44-14-10.44-14-9.9,3.3-13.91,10.07-15.07,17.17-2.64-.81-5.95-1.19-10.04-.76,0,0-1.97,3.96,2.02,9-2.35-.52-5.17-.71-8.5-.36,0,0-3.78,7.61,9.73,15.15.69.38,1.34.71,1.94.99-15.71-4.8-25.61-1.25-30.34,16.09-1.53,5.62-1.08,26.49,10.27,34.05Z"/>
              <path d="m754.43,211.57c8.6,5.5,18.51,9.37,28.17,12.74,0,0-.61-.1-.61-.1,0,0,22.16,0,22.16,0,0,0-.53.07-.53.07,11.82-4.2,24.63-9.08,32.41-19.37,7.82-10.1,6.52-23.91-.54-34.22-2.28-3.3-5.32-5.94-9.04-7.16-6.36-2.53-16.06.57-22.63,1.68,0,0,9.16-5.66,9.16-5.66,3.89-2.47,9.02-6.65,7.55-11.75,0,0,1.55,1.08,1.55,1.08-2.64-.28-5.28-.23-7.78.3l-5.11,1.1s3.17-4.25,3.17-4.25c1.43-1.77,2.55-4.09,2.11-6.39-.04-.21-.09-.41-.16-.6-.01-.04-.06-.14-.03-.08,0,0,1.55,1.08,1.55,1.08-3.73-.4-7.52-.14-10.81,1.24,0,0-2.56,1.07-2.56,1.07,0,0-.15-2.76-.15-2.76-.32-6.47-3.91-12.95-9.75-15.92,0,0,1.4.06,1.4.06-1.82.51-3.57,1.22-5.16,2.17-4.88,2.8-7.92,7.88-8.59,13.46,0,0-.36,2.21-.36,2.21l-2.15-.65c-2.91-.89-6.1-1.02-9.26-.68,0,0,1.55-1.08,1.55-1.08-.83,2.3.28,5.02,1.8,6.91,0,0,3.07,4.24,3.07,4.24-4.02-.93-8.7-2.07-12.9-1.43,0,0,1.55-1.08,1.55-1.08.02-.03-.07.18-.1.3-1.31,6.1,6.11,10.84,10.82,13.18,0,0-1.39,3.66-1.39,3.66-8.48-2.67-18.62-3.45-23.82,5.15-1.62,2.52-2.83,5.42-3.66,8.3-.46,1.4-.77,2.83-.84,4.32-.51,9.85,1.43,22.76,9.91,28.87h0Zm-2.18,3.26c-9.88-6.99-12.24-21.16-11.65-32.45.2-3.43,1.44-6.72,2.69-9.9,5.91-13.94,17.5-15.4,30.68-11.3,0,0-1.39,3.66-1.39,3.66-6.86-3.27-15.85-10.16-12.61-18.8,0,0,.44-.96.44-.96,3.38-.41,6.81-.49,10.24.27,0,0-1.96,3.13-1.96,3.13l-.81-1.11c-1.91-2.87-2.87-6.69-1.43-9.98,0,0,.45-.96.45-.96l1.1-.12c3.54-.37,7.25-.25,10.82.83,0,0-2.51,1.56-2.51,1.56,1.11-6.39,4.94-12.5,10.61-15.85,2.04-1.28,4.22-2.26,6.44-3.13,7.67,3.34,12.4,11.43,12.84,19.6,0,0-2.71-1.69-2.71-1.69,4.49-1.87,9.26-1.98,13.83-1.41,2.29,4,.84,8.93-1.95,12.26,0,0-1.93-3.16-1.93-3.16,3.4-.74,6.79-.66,10.13-.25,2.99,5.38-.41,11.54-4.69,15.01-1.03.9-2.71,2.03-3.87,2.79,0,0-1.48-3.58-1.48-3.58,6.72-1.98,15.14-1.47,20.94,3.18,4.85,3.7,7.95,9.1,10.04,14.71,3.99,10.15,2.44,22.23-4.33,30.82-8.62,11.29-22.71,16.41-35.78,20.11,0,0-.28,0-.28,0,0,0-22.16,0-22.16,0h-.32s-.3-.1-.3-.1c-10.13-3.54-20-7.38-29.12-13.2h0Z"/>
            </g>
            <g>
              <path class="cls-16" d="m780.69,201.08c6.84,4.06,10.34,3.57,12.04,1.41,1.77,2.29,5.5,2.89,12.95-1.28,19.07-10.68,13.73-21.44,13.73-21.44-5.3-2.4-9.98-2.17-13.9-.72.1-1.74.01-3.32-.26-4.76-1.78-9.44-10.98-12.72-10.98-12.72-8.88,3.37-11.8,10.7-12.24,17.98-3.91-1.87-8.7-2.44-14.21.21,0,0-5.01,10.7,12.89,21.31Z"/>
              <path d="m781.97,198.93c2.19,1.2,6.88,3.99,8.8,2.01,0,0,2-2.32,2-2.32l1.93,2.33c.65.77,1.43.85,2.51.79,3.69-.41,7.44-2.8,10.63-4.81,3.22-2.19,6.51-5.06,8.3-8.31,1.27-2.4,1.93-5.21,1.02-7.75,0,0,1.21,1.17,1.21,1.17-3.83-1.76-8.06-2.15-12-.65,0,0-3.81,1.27-3.81,1.27l.44-3.76c.92-5.84-2.22-11.46-7.28-14.32-.65-.41-1.55-.85-2.3-.65,0,0,1.72-.02,1.72-.02-8.35,3.15-10.69,10.29-10.8,18.63-2.95-.61-6.38-1.6-9.37-1.35-2.08.12-3.91.69-6.09.82,0,0,1.18-1.19,1.18-1.19-2.2,7.99,5.78,14.37,11.9,18.1h0Zm-2.55,4.3c-4.04-2.51-8.11-5.46-10.94-9.34-3.42-4.37-5.2-10.94-2.49-16.17.01,0,.75-.2.75-.22,3.3-2.96,8.36-3.32,12.48-2.09,1.4.44,2.73,1.07,3.88,1.89l-3.57,2.1c.38-9.3,5.46-17.39,14.5-20.41.01,0,1.09.22,1.1.24,1.69,1.44,3.55,2.14,5.24,3.52,5.06,3.77,7.91,10.2,7.64,16.45,0,0-3.39-2.5-3.36-2.5,5.35-2.09,11.58-1.37,16.62,1.16,1.22,2.26,1.51,4.85,1.21,7.35-1.54,9.79-10.85,15.98-19.07,19.91-3.74,1.76-9.67,2.9-12.65-1.11,0,0,3.94.02,3.94.02-3.97,4.9-11.06,1.73-15.28-.81h0Z"/>
            </g>
            <g>
              <g>
                <path class="cls-18" d="m824.96,198.03c-.79-1.2-3.06-2.92-5.02-3.57-5.98-1.99-14.57,2.16-20.09,8.63-7.37,8.63-7.37,17.86-3.68,21.13,3.44,3.06,17.41-6.25,17.41-13.99,0-1.42.74-5.66,1.34-7.14,1.67-4.17,5.31-3.91,10.05-5.06Z"/>
                <path d="m822.63,197.12c-.39.54-.23,1.79.15,2.17-.4-.49-.91-.9-1.45-1.29-6.48-4.58-15.87,2.02-20.14,7.32-3.46,4.24-7.14,11.87-3.66,16.85,0,0,.15.16.15.16l.07.08s0-.02-.01-.02c.28.06,1.31-.05,2.13-.36,4.72-1.85,10.5-6.37,11.31-11.5.16-2.86.56-5.26,1.41-8.06,1.73-5.01,6.29-5.72,10.75-6.61,0,0,.18-.04.18-.04-.38.04-.97.71-.88,1.31h0Zm4.65,1.83c-.52.75-1.67,1.56-2.72,1.73-.11.02-.47.09-.58.11-2.53.56-5.97.52-6.89,3.31-.56,1.72-.99,4.08-1.15,5.95-.02.9-.11,1.9-.36,2.73-2.06,6.5-8,11.37-14.16,13.8-5.06,1.86-8.32-.33-9.7-5.52-1.51-6.85,1.49-13.6,5.65-18.82,5.92-7.34,17.73-14.72,26.85-8.31,1.53,1.11,3.74,2.88,3.06,5.01h0Z"/>
              </g>
              <g>
                <path class="cls-18" d="m762.26,197.99c.79-1.2,3.06-2.92,5.02-3.57,5.98-1.99,14.57,2.16,20.09,8.63,7.37,8.63,7.37,17.86,3.68,21.13-3.44,3.06-17.41-6.25-17.41-13.99,0-1.42-.74-5.66-1.34-7.14-1.67-4.17-5.31-3.91-10.05-5.06Z"/>
                <path d="m759.93,198.91c-.25-.72-.04-2,.54-2.64.8-.83,1.77-1.49,2.72-2.08,9.17-5.62,20.28,1.11,26.19,8.38,4.11,5.06,7.12,11.65,5.71,18.35-1.84,7.14-6.75,6.97-12.31,3.97-5.25-3.05-10.64-7.67-11.42-14.1-.1-2.16-.59-4.75-1.23-6.74-.94-2.79-4.37-2.72-6.9-3.3,0,0-.39-.08-.39-.08l-.19-.04c-1.05-.17-2.21-.98-2.72-1.73h0Zm4.65-1.83c.11-.58-.53-1.29-.88-1.31.09.01.42.1.53.11,4.33.78,8.79,1.74,10.39,6.55,1.04,3.12,1.13,5.93,1.52,9.1,1.59,4.87,6.36,8.77,11.11,10.74.91.33,1.86.53,2.45.37.76-.72,1.19-1.59,1.48-2.68,1.45-7.22-3.29-14.53-8.65-19.06-4.5-3.59-11.85-7.6-16.85-3.22-.5.46-1,.95-1.28,1.55.42-.32.56-1.62.2-2.14h0Z"/>
              </g>
              <g>
                <path class="cls-18" d="m793.48,183.75s11.72,3.56,8.7,15.77c-3.01,12.2-6.03,10.12-8.45,24.91-.25,1.54-2.85-8.99-6.29-15.98-3.12-6.33-3.35-8.63-3.35-8.63,0,0-2-10.7,9.38-16.06Z"/>
                <path d="m793.3,181.26c.59-.02,1.12.15,1.62.36,5.66,2.2,10.23,7.68,10.04,13.94-.14,4.22-1.54,8.09-3.08,11.9-1.23,2.84-2.83,5.33-3.85,8.16-1.05,2.83-1.71,5.94-2.26,9.04-.02.06.01,0-.09.4l-.07.22s-.04.1-.04.1c-.3.71-1.3,1.38-2.13,1.22-1.41-.13-1.94-1.5-2.32-2.61-.51-1.47-1.68-5.01-2.2-6.53-1.76-5.82-5.05-10.8-6.63-16.64-.75-3.35-.04-8.21,2.1-11.61,2.12-3.5,5.41-5.97,8.91-7.96h0Zm.36,4.99c-5.48,1.72-8.55,8.24-7.53,13.68,1.63,5.56,4.92,10.69,6.59,16.21.51,1.42,1.71,5.1,2.23,6.46,0,0,.19.48.19.48.06.14.13.29.14.31-.3-.48-.83-.79-1.42-.85-.7-.07-1.49.27-1.86.88-.19.34-.13.21-.23.47-.08.31-.03.16-.03.13.74-4.78,1.93-9.88,4.23-14.25,2.14-4.14,3.94-8.61,4.37-13.19.47-4.55-2.67-8.47-6.78-10.12-.18-.06-.56-.23-.74-.28.2.08.58.13.85.09h0Z"/>
              </g>
            </g>
            <g>
              <g>
                <path class="cls-13" d="m783.38,229.54c9.6-.01,10.55-1.43,8.19-5.55-2.7-4.71-7-9.88-11.19-9.03s-6.82,5.3-5.88,9.95c.94,4.65,4.5,4.64,8.88,4.63Z"/>
                <path d="m783.37,226.79c2.46.06,5.16.08,6.99-.44-.02.06-.07.1-.11.15-.04.1-.16.4-.11.41-.04-.09-.01-.13-.09-.31-1.29-2.92-5.83-9.5-9.18-8.83-2.98.76-4.2,4.57-3.21,7.3.2.59.35.77.68,1,1.19.71,3.39.65,5.02.72h0Zm0,5.48c-6.84.57-12.04-1.62-12.08-9.4,0-8.29,9.13-14.39,15.96-8.4,3.23,2.74,5.54,6.21,7.34,9.95,2.94,7.51-6.4,7.71-11.21,7.85h0Z"/>
              </g>
              <g>
                <path class="cls-13" d="m796.23,219.71c-3.47,8.95.04,10.19,4.73,9.49,5.37-.81,9.21-2.78,9.94-6.99.73-4.21-2.46-8.28-7.13-9.09-4.67-.82-5.95,2.51-7.54,6.59Z"/>
                <path d="m798.72,220.68c-.83,2-1.58,3.91-1.34,5.54.06.16.07.33.25.36.33.18,1.2.18,1.62.14,3.91-.33,10.49-2.53,8.01-7.55-.83-1.63-3.06-2.96-4.92-3.06-.55-.02-.72.02-1.09.22-1.11.85-1.86,2.86-2.53,4.34h0Zm-4.99-1.94c1.86-6.5,5.58-10.56,12.8-8.22,9.89,3.42,10.45,16.82.17,20.16-11.16,3.6-17.27-.17-12.97-11.94h0Z"/>
              </g>
              <g>
                <path class="cls-13" d="m801.16,235.08c-6.07-7.44-10.51-4.47-12.21-.04-1.95,5.07-2.12,9.38,1.17,12.09,3.3,2.71,8.41,1.94,11.43-1.72,3.02-3.66,2.38-6.94-.39-10.34Z"/>
                <path d="m799.08,236.77c-2.64-3.21-5.72-5.93-7.83-.93-1.01,2.46-2.02,6.14-.68,8.32,1.68,2.84,5.79,2.87,8.14.72,2.66-2.41,3.06-5.14.37-8.1h0Zm4.15-3.39c1.72,2.15,3.2,4.97,2.83,7.96-.82,5.79-6.4,10.16-12.21,9.68-9.54-1.33-10.14-10.66-6.72-17.93,3.88-7.93,11.72-5.4,16.1.28h0Z"/>
              </g>
              <g>
                <path class="cls-13" d="m805.41,226.94c-8.8,3.84-6.76,8.03-2.96,10.87,4.36,3.25,8.46,4.58,11.96,2.14,3.5-2.44,4.14-7.58,1.43-11.47-2.71-3.89-6.42-3.28-10.43-1.53Z"/>
                <path d="m806.51,229.47c-2.07.99-4.02,1.66-4.78,3.25-.12.75.27,1.26,1,2.08,1.18,1.19,3.08,2.47,4.65,3.21,5.21,2.76,9.49-2.31,6.97-7.14-1.66-3.39-4.48-2.98-7.84-1.41h0Zm-2.2-5.05c5.67-2.69,11.76-1.99,14.54,4.27,3.45,6.92-1.44,15.86-9.62,14.83-3.97-.65-7.09-2.63-10.02-5.3-5.69-5.64-.57-11.48,5.1-13.81h0Z"/>
              </g>
              <g>
                <path class="cls-13" d="m780.47,229.63c9.41-1.95,10.88,2.18,9.41,6.7-1.68,5.17-4.26,8.62-8.53,8.65s-7.76-3.79-7.79-8.54,2.62-5.92,6.91-6.81Z"/>
                <path d="m779.86,226.65c8.01-1.36,15.21,1.98,11.42,11.24-.85,2.27-1.84,4.48-3.55,6.35-5.48,6.02-15,2.52-16.9-4.96-1.86-7.08,1.83-11.92,9.04-12.62h0Zm1.24,5.97c-3.36.93-4.73,1.45-4.26,5.23.33,2.91,3.09,5.5,6.09,4.72,3.11-.8,5.27-5.49,5.53-8.6.18-3.58-4.95-1.9-7.35-1.35h0Z"/>
              </g>
              <path class="cls-7" d="m788.23,222.86c5.22,8.07,8.28,5.94,10.46,1.73,2.5-4.83,3.15-9.09.17-12.15-2.98-3.06-8.15-2.86-11.55.45-3.4,3.31-1.46,6.29.92,9.97Z"/>
              <g>
                <path class="cls-17" d="m786.19,228.9c-.41,3.45,1.96,7.26,7.59,7.23,4.63-.03,8.65-1.81,9.06-5.26.41-3.45-2.12-5.88-7.59-7.23-4.49-1.11-8.65,1.81-9.06,5.26Z"/>
                <path d="m787.71,229.08c-.08,5.46,6.89,5.1,10.51,3.79,2.69-.82,3.52-3.75,1.3-5.61-2.47-1.97-6.39-3.63-9.42-1.87-1.43.84-2.35,2.37-2.38,3.69h0Zm-3.04-.36c.94-4.74,6.37-7.22,10.82-6.37,2.01.4,4.06.9,6.07,2.14,5.29,3.24,4.18,10.67-1.41,12.87-6.86,3.18-16.64.16-15.47-8.64h0Z"/>
              </g>
            </g>
          </g>
        </g>
      </g>
    </g>
  </g>
</svg>